<svg xmlns="http://www.w3.org/2000/svg" viewBox="0 0 59.78 12"><defs><style>.cls-1{fill:#2676b7;}</style></defs><g id="Layer_2" data-name="Layer 2"><g id="layer"><path class="cls-1" d="M3.45,7.56H0V7.18c.11,0,.23,0,.42,0a2.29,2.29,0,0,0,.38-.06.39.39,0,0,0,.25-.19.55.55,0,0,0,.08-.34V1.11A.76.76,0,0,0,1.11.79.5.5,0,0,0,.83.58L.43.45A1.84,1.84,0,0,0,0,.39V0H3.44V.38a3.82,3.82,0,0,0-.4,0,2.18,2.18,0,0,0-.4.08.44.44,0,0,0-.28.21A.91.91,0,0,0,2.3,1V6.49a.59.59,0,0,0,.08.32A.53.53,0,0,0,2.63,7,2.25,2.25,0,0,0,3,7.1c.17,0,.32,0,.42.06l0,.4Z"/><path class="cls-1" d="M11.66,1.71a1.88,1.88,0,0,0-.38.06,1,1,0,0,0-.36.13c-.11.06-.17.21-.21.42a4.3,4.3,0,0,0-.06.79v4.5h-.38l-3.71-5V5.76a4.34,4.34,0,0,0,.06.83.66.66,0,0,0,.21.4.89.89,0,0,0,.4.17,1.69,1.69,0,0,0,.39.08v.31H5.14V7.24a3,3,0,0,0,.4-.08A1.16,1.16,0,0,0,5.88,7a.62.62,0,0,0,.21-.38,4.15,4.15,0,0,0,.06-.85v-3a1.34,1.34,0,0,0-.06-.4.85.85,0,0,0-.19-.32,1.42,1.42,0,0,0-.42-.25,1.53,1.53,0,0,0-.42-.11V1.38H6.82l3.45,4.67V3.17a4.34,4.34,0,0,0-.06-.83A.64.64,0,0,0,10,2a1.43,1.43,0,0,0-.4-.17,2.64,2.64,0,0,0-.42-.08V1.4h2.5l0,.31Z"/><path class="cls-1" d="M24.51,2.14a3,3,0,0,1,.64,1,3.8,3.8,0,0,1,.23,1.34,3.83,3.83,0,0,1-.23,1.33,2.85,2.85,0,0,1-.66,1,2.82,2.82,0,0,1-.93.64,3.12,3.12,0,0,1-1.14.22,3.31,3.31,0,0,1-1.19-.22,2.64,2.64,0,0,1-.93-.68,3.24,3.24,0,0,1-.62-1,3.64,3.64,0,0,1-.22-1.29,3.66,3.66,0,0,1,.22-1.34,3.2,3.2,0,0,1,.64-1,2.72,2.72,0,0,1,1-.65,2.92,2.92,0,0,1,2.27,0A2.63,2.63,0,0,1,24.51,2.14ZM23.87,6.5a2.64,2.64,0,0,0,.36-.89,6.25,6.25,0,0,0,.11-1.12,4.82,4.82,0,0,0-.13-1.17,3,3,0,0,0-.36-.91,1.68,1.68,0,0,0-.59-.57,1.66,1.66,0,0,0-.82-.21,1.71,1.71,0,0,0-.89.23A2,2,0,0,0,21,2.5a3.22,3.22,0,0,0-.32.89,6.17,6.17,0,0,0-.11,1.08,5.52,5.52,0,0,0,.11,1.12,2.64,2.64,0,0,0,.36.89,1.75,1.75,0,0,0,.59.59,1.56,1.56,0,0,0,.85.21,1.5,1.5,0,0,0,.82-.21A1.29,1.29,0,0,0,23.87,6.5Z"/><path class="cls-1" d="M44.87,5.76a3.85,3.85,0,0,1-.28.62,3.08,3.08,0,0,1-.42.64.91.91,0,0,1-.25.13l-.34.06a2.12,2.12,0,0,1-.39,0h-.38a4.2,4.2,0,0,1-.55,0,.64.64,0,0,1-.32-.11.35.35,0,0,1-.15-.23,2.39,2.39,0,0,1,0-.45V4.57h.7a2.48,2.48,0,0,1,.45,0,.75.75,0,0,1,.3.21.83.83,0,0,1,.15.34,1.78,1.78,0,0,1,.08.45h.31V3.2h-.31a3.53,3.53,0,0,1-.08.4,1.08,1.08,0,0,1-.17.34.56.56,0,0,1-.28.21,1.54,1.54,0,0,1-.49.06h-.65V1.75h1.71a1.27,1.27,0,0,1,1,.55l.32.55h.34L45,1.39H40V1.7l.32,0a.8.8,0,0,1,.31.11.28.28,0,0,1,.19.19.47.47,0,0,1,0,.25V6.72a.44.44,0,0,1-.06.25.53.53,0,0,1-.19.17,1,1,0,0,1-.27.06l-.34,0v.31h5.1l.13-1.82S44.87,5.76,44.87,5.76Z"/><path class="cls-1" d="M49.45,7.7a2.58,2.58,0,0,1-2-.82,3,3,0,0,1-.62-1,3.76,3.76,0,0,1-.23-1.34,3.83,3.83,0,0,1,.23-1.33,3.38,3.38,0,0,1,.62-1,2.44,2.44,0,0,1,.93-.66,3.11,3.11,0,0,1,2-.11,3.17,3.17,0,0,1,.7.31l.17-.29h.34l0,2.2h-.36a3.87,3.87,0,0,0-.21-.7,2.13,2.13,0,0,0-.32-.64,1.81,1.81,0,0,0-.49-.47,1.27,1.27,0,0,0-.66-.17,1.64,1.64,0,0,0-.78.19,2.35,2.35,0,0,0-.64.55,2.72,2.72,0,0,0-.4.89,5.48,5.48,0,0,0-.15,1.21,3.3,3.3,0,0,0,.15,1.07,3.05,3.05,0,0,0,.42.87,1.78,1.78,0,0,0,.66.57,1.59,1.59,0,0,0,.84.21,1.73,1.73,0,0,0,1.15-.41,2.45,2.45,0,0,0,.38-.42,4.44,4.44,0,0,0,.28-.53l.32.15a2.67,2.67,0,0,1-1,1.32A2.22,2.22,0,0,1,49.45,7.7Z"/><path class="cls-1" d="M59.75,7.56H57.19V7.25l.3,0,.28,0A.41.41,0,0,0,58,7,.55.55,0,0,0,58,6.76V4.55h-2.9V6.7a.76.76,0,0,0,0,.25.85.85,0,0,0,.19.19l.24.08.3,0v.31H53.33V7.26l.3,0c.13,0,.21,0,.28,0a.41.41,0,0,0,.19-.15.55.55,0,0,0,.06-.28V2.32a.57.57,0,0,0-.06-.25.57.57,0,0,0-.19-.19l-.28-.11a1.77,1.77,0,0,0-.3,0V1.42h2.6v.29a2.27,2.27,0,0,0-.3,0,1,1,0,0,0-.24.06c-.11,0-.17.08-.19.17a.55.55,0,0,0,0,.25V4.14h2.9V2.29A.57.57,0,0,0,58,2a.57.57,0,0,0-.19-.19l-.28-.11a1.77,1.77,0,0,0-.3,0V1.39h2.52v.33a2.27,2.27,0,0,0-.3,0,1,1,0,0,0-.25.06c-.11,0-.17.08-.19.17a.55.55,0,0,0,0,.25V6.67a.76.76,0,0,0,0,.25.85.85,0,0,0,.19.19l.25.08.3,0v.33Z"/><path class="cls-1" d="M18.2,1.43h-5v.29a2.51,2.51,0,0,1,.32,0,1,1,0,0,1,.31.11.28.28,0,0,1,.19.19.47.47,0,0,1,0,.25V6.76A.64.64,0,0,1,14,7a.53.53,0,0,1-.19.17.68.68,0,0,1-.27,0,2.31,2.31,0,0,1-.34,0v.31h2.67V7.27l-.34,0c-.15,0-.23-.06-.28-.06A.35.35,0,0,1,15,7,.57.57,0,0,1,15,6.73V4.61h.7a1.58,1.58,0,0,1,.47.06.69.69,0,0,1,.32.21,1.12,1.12,0,0,1,.16.36,2,2,0,0,1,.08.42H17V3.23h-.34a2.41,2.41,0,0,1-.08.42,1.42,1.42,0,0,1-.14.3.9.9,0,0,1-.3.21,1.69,1.69,0,0,1-.51.06H15V1.76h1.71a1.21,1.21,0,0,1,1,.55l.32.53h.34Z"/><path class="cls-1" d="M38.54,0H32.19l-.11,1.71h.4s.28-.48.38-.63A1.61,1.61,0,0,1,34,.42h.8v6a.76.76,0,0,1-.06.32.44.44,0,0,1-.25.23l-.39.11a2.7,2.7,0,0,1-.47.06v.37h3.58V7.18a2.49,2.49,0,0,1-.47-.06,1.78,1.78,0,0,1-.4-.11.44.44,0,0,1-.25-.23A.89.89,0,0,1,36,6.46v-6h.81A1.47,1.47,0,0,1,38,1.09c.11.15.38.63.38.63h.4Z"/><path class="cls-1" d="M0,9.89H1a.82.82,0,0,1,.23,0,.77.77,0,0,1,.19.08.36.36,0,0,1,.13.17.56.56,0,0,1,0,.23.58.58,0,0,1-.1.33.47.47,0,0,1-.3.17h0a.43.43,0,0,1,.17,0,.29.29,0,0,1,.11.11l.06.13a.47.47,0,0,1,0,.17v.13a.71.71,0,0,0,0,.15s0,.11,0,.15,0,.08,0,.11h-.2a.07.07,0,0,1,0-.06s0-.06,0-.08V11.6a.75.75,0,0,0,0-.21.35.35,0,0,0-.06-.19.19.19,0,0,0-.13-.13S1,11,.9,11H.18v.87H0v-2H0Zm.19.93h.7a.5.5,0,0,0,.17,0s.11,0,.13-.08a.24.24,0,0,0,.08-.13.38.38,0,0,0,0-.16.44.44,0,0,0-.11-.3A.45.45,0,0,0,.92,10H.22v.8Z"/><path class="cls-1" d="M1.73,11.92H1.38l0,0s0,0,0-.08,0-.06,0-.08V11.6a.75.75,0,0,0,0-.21.43.43,0,0,0,0-.17.29.29,0,0,0-.11-.11.43.43,0,0,0-.17,0H.3V12H0V9.87H1a1.09,1.09,0,0,1,.25,0,.53.53,0,0,1,.21.11.47.47,0,0,1,.14.19.51.51,0,0,1,.06.25.66.66,0,0,1-.11.35.46.46,0,0,1-.16.15,0,0,0,0,1,0,0,.4.4,0,0,1,.12.11.47.47,0,0,1,.06.15.5.5,0,0,1,0,.17v.13a.44.44,0,0,0,0,.15s0,.08,0,.13a.1.1,0,0,0,0,.08Zm-.29-.1h.07a.06.06,0,0,0,0,0,.39.39,0,0,1,0-.15.39.39,0,0,0,0-.15v-.13c0-.06,0-.11,0-.15a.38.38,0,0,0,0-.13A.16.16,0,0,0,1.32,11a.3.3,0,0,0-.15,0h0a.07.07,0,0,1,0,0,.27.27,0,0,1,.13.15l.06.21c0,.06,0,.15,0,.21v.14a.15.15,0,0,0,0,.08A.12.12,0,0,1,1.44,11.82Zm-1.34,0H.18v-.89H.94a.44.44,0,0,1,.17,0v-.09l0,0a.43.43,0,0,0,.25-.15.49.49,0,0,0,.08-.29.65.65,0,0,0,0-.21A.33.33,0,0,0,1.33,10,.45.45,0,0,0,1.16,10a.75.75,0,0,0-.21,0H.1Zm.83-.94H.17V10H.93a.47.47,0,0,1,.36.13.44.44,0,0,1,.13.32.65.65,0,0,1,0,.18.33.33,0,0,1-.11.15.74.74,0,0,1-.15.08Zm-.64-.11H1a.39.39,0,0,0,.15,0l.13-.06a.19.19,0,0,0,.08-.11.3.3,0,0,0,0-.14.33.33,0,0,0-.08-.25A.38.38,0,0,0,1,10.11H.31l0,.66Z"/><path class="cls-1" d="M4.58,9.89H6v.17H4.78v.71h1.1v.17H4.78v.79H6v.15H4.58Z"/><path class="cls-1" d="M6,11.92H4.52V9.83H6v.28H4.82v.61h1.1V11H4.82v.68H6Zm-1.38-.1H6v-.06H4.73v-.9h1.1v0H4.73V10H5.92V9.94H4.65Z"/><path class="cls-1" d="M9,11.22a.76.76,0,0,0,0,.25.49.49,0,0,0,.15.17.66.66,0,0,0,.21.08,1.06,1.06,0,0,0,.25,0,.56.56,0,0,0,.17,0l.17-.06a.32.32,0,0,0,.13-.13.27.27,0,0,0,.06-.19.33.33,0,0,0,0-.15.29.29,0,0,0-.11-.11L9.93,11a.42.42,0,0,0-.15,0l-.42-.11-.17-.06A.36.36,0,0,1,9,10.73l-.11-.13a.58.58,0,0,1,0-.18.56.56,0,0,1,0-.17A.62.62,0,0,1,9,10.06a.57.57,0,0,1,.21-.15.83.83,0,0,1,.34-.06,1.18,1.18,0,0,1,.28,0,.45.45,0,0,1,.23.13.77.77,0,0,1,.17.19.61.61,0,0,1,.06.28h-.19a.45.45,0,0,0,0-.19.27.27,0,0,0-.13-.15.45.45,0,0,0-.17-.08.68.68,0,0,0-.21,0,.62.62,0,0,0-.19,0l-.15.06a.25.25,0,0,0-.11.13.45.45,0,0,0,0,.19.27.27,0,0,0,0,.12.18.18,0,0,0,.06.08l.11.06.11,0,.49.13.19.06a.39.39,0,0,1,.17.11.45.45,0,0,1,.11.15.65.65,0,0,1,0,.21v.08a.38.38,0,0,1,0,.13.46.46,0,0,1-.08.13l-.13.13a.66.66,0,0,1-.21.08,1.28,1.28,0,0,1-.3,0,1.39,1.39,0,0,1-.32,0,.4.4,0,0,1-.25-.13.87.87,0,0,1-.17-.21.53.53,0,0,1,0-.32H9v-.08Z"/><path class="cls-1" d="M9.65,12a1.76,1.76,0,0,1-.34,0A.9.9,0,0,1,9,11.79a.63.63,0,0,1-.17-.23.6.6,0,0,1,0-.34v0h.3v.06a.79.79,0,0,0,0,.23.27.27,0,0,0,.13.15.42.42,0,0,0,.19.08.89.89,0,0,0,.4,0l.15-.06a.29.29,0,0,0,.11-.11.24.24,0,0,0,0-.15.32.32,0,0,0,0-.13.16.16,0,0,0-.08-.08L10,11.11l-.13,0L9.37,11,9.2,10.9a.33.33,0,0,1-.15-.11.58.58,0,0,1-.11-.15.65.65,0,0,1,0-.2.68.68,0,0,1,0-.19A.71.71,0,0,1,9,10a.69.69,0,0,1,.23-.17.93.93,0,0,1,.36-.06,1.36,1.36,0,0,1,.3,0,.6.6,0,0,1,.25.13.87.87,0,0,1,.17.21.7.7,0,0,1,.06.3v0h-.3v0a.43.43,0,0,0,0-.17.58.58,0,0,0-.11-.13.55.55,0,0,0-.15-.08.56.56,0,0,0-.36,0l-.15.06a.19.19,0,0,0-.08.11c-.06,0-.06.06-.06.13a.18.18,0,0,0,0,.1s0,0,0,.06a.1.1,0,0,0,.08,0l.11,0,.49.13.21.06a.39.39,0,0,1,.17.11s.08.11.13.17a.79.79,0,0,1,0,.23v.11a.38.38,0,0,1,0,.13l-.08.15a1.08,1.08,0,0,1-.15.13.62.62,0,0,1-.23.08Zm-.74-.7a.79.79,0,0,0,0,.23.41.41,0,0,0,.15.19,1.23,1.23,0,0,0,.23.11,1.46,1.46,0,0,0,.59,0,.42.42,0,0,0,.19-.08.58.58,0,0,0,.13-.11l.06-.11a.2.2,0,0,0,0-.11V11.3a.65.65,0,0,0,0-.19.58.58,0,0,0-.11-.13A.31.31,0,0,0,10,10.9l-.19-.06-.49-.13a.38.38,0,0,1-.13,0l-.11-.06A.19.19,0,0,1,9,10.5a.28.28,0,0,1,0-.14.65.65,0,0,1,0-.21A.64.64,0,0,1,9.17,10a.45.45,0,0,1,.17-.08,1.48,1.48,0,0,1,.42,0L10,10a.36.36,0,0,1,.13.17.43.43,0,0,1,0,.17h.08a.65.65,0,0,0,0-.19A.49.49,0,0,0,10,10a1,1,0,0,0-.21-.11,1.11,1.11,0,0,0-.28,0,.76.76,0,0,0-.32.06A.57.57,0,0,0,9,10a.3.3,0,0,0-.08.17.44.44,0,0,0,0,.15.34.34,0,0,0,0,.16.66.66,0,0,0,.08.13.35.35,0,0,0,.13.08l.17.06.45.11.15,0a.55.55,0,0,1,.15.08.25.25,0,0,1,.11.13.43.43,0,0,1,0,.17.37.37,0,0,1-.06.21.43.43,0,0,1-.15.15.77.77,0,0,1-.19.08,1.13,1.13,0,0,1-.45,0,.41.41,0,0,1-.23-.11A.36.36,0,0,1,9,11.44a.79.79,0,0,1,0-.23H8.9S8.91,11.26,8.91,11.26Z"/><path class="cls-1" d="M13.42,9.89h1.37v.17H13.6v.71h1.1v.17H13.6v.79h1.21v.15H13.42v-2Z"/><path class="cls-1" d="M14.85,11.92H13.36V9.83h1.48v.28H13.65v.61h1.1V11h-1.1v.68h1.2Zm-1.39-.1h1.29v-.06H13.54v-.9h1.1v0h-1.1V10h1.19V9.94H13.46Z"/><path class="cls-1" d="M18.35,9.89h.21l.79,2h-.21l-.23-.62H18l-.23.62h-.23Zm-.3,1.2h.79l-.38-1Z"/><path class="cls-1" d="M19.41,11.92h-.32l-.23-.62H18l-.23.62h-.32l.85-2.09h.28Zm-.23-.1h.08l-.74-1.88h-.06l.47,1.2H18l.47-1.2h-.06l-.76,1.88h.08L18,11.2h1ZM18.12,11h.64l-.32-.82Z"/><path class="cls-1" d="M22.23,9.89h.9a.82.82,0,0,1,.23,0,.77.77,0,0,1,.19.08.36.36,0,0,1,.13.17.43.43,0,0,1,0,.23.59.59,0,0,1-.11.33.47.47,0,0,1-.3.17h0a.43.43,0,0,1,.17,0,.29.29,0,0,1,.11.11l.06.13a.47.47,0,0,1,0,.17v.13a.36.36,0,0,0,0,.15s0,.11,0,.15,0,.08,0,.11h-.21a.07.07,0,0,1,0-.06s0-.06,0-.08V11.6a.75.75,0,0,0,0-.21.35.35,0,0,0-.06-.19.19.19,0,0,0-.13-.13s-.13,0-.21,0h-.71v.87h-.19v-2h.05Zm.19.93h.69a.5.5,0,0,0,.17,0s.11,0,.13-.08a.24.24,0,0,0,.08-.13.38.38,0,0,0,0-.16.44.44,0,0,0-.11-.3A.45.45,0,0,0,23.1,10h-.69v.8Z"/><path class="cls-1" d="M23.89,11.92h-.34l0,0s0,0,0-.08,0-.06,0-.08V11.6a.75.75,0,0,0,0-.21.43.43,0,0,0,0-.17.29.29,0,0,0-.11-.11.43.43,0,0,0-.17,0h-.67V12h-.3V9.87h1a1.09,1.09,0,0,1,.25,0,.53.53,0,0,1,.21.11.58.58,0,0,1,.15.19.51.51,0,0,1,.06.25.66.66,0,0,1-.11.35.61.61,0,0,1-.17.15,0,0,0,0,1,0,0,.58.58,0,0,1,.13.11.47.47,0,0,1,.06.15.5.5,0,0,1,0,.17v.13a.44.44,0,0,0,0,.15s0,.08,0,.13a.1.1,0,0,0,0,.08Zm-.27-.1h.08s0,0,0,0a.39.39,0,0,1,0-.15.39.39,0,0,0,0-.15v-.13c0-.06,0-.11,0-.15a.38.38,0,0,0,0-.13A.16.16,0,0,0,23.5,11a.3.3,0,0,0-.15,0h0a.07.07,0,0,1,0,0,.27.27,0,0,1,.13.15q0,.09.06.21c0,.06,0,.15,0,.21v.14a.15.15,0,0,0,0,.08S23.6,11.82,23.62,11.82Zm-1.35,0h.08v-.89h.75a.44.44,0,0,1,.17,0v-.09l0,0a.43.43,0,0,0,.25-.15.49.49,0,0,0,.08-.29.65.65,0,0,0,0-.21.33.33,0,0,0-.11-.15.53.53,0,0,0-.17-.08.75.75,0,0,0-.21,0h-.86l0,1.88Zm.84-.94h-.75V10h.75a.47.47,0,0,1,.36.13.44.44,0,0,1,.13.32.65.65,0,0,1,0,.18.33.33,0,0,1-.11.15.55.55,0,0,1-.15.08Zm-.65-.11h.65a.39.39,0,0,0,.15,0l.13-.06a.19.19,0,0,0,.08-.11.3.3,0,0,0,0-.14.33.33,0,0,0-.08-.25.38.38,0,0,0-.28-.08h-.65v.67h0Z"/><path class="cls-1" d="M28.24,10.49a.66.66,0,0,0-.08-.21.43.43,0,0,0-.15-.15.64.64,0,0,0-.19-.08.65.65,0,0,0-.21,0,.61.61,0,0,0-.34.08,1.06,1.06,0,0,0-.23.19.68.68,0,0,0-.13.27,1.75,1.75,0,0,0,0,.32,1.75,1.75,0,0,0,0,.32.6.6,0,0,0,.13.28.69.69,0,0,0,.23.19.81.81,0,0,0,.34.08,1.09,1.09,0,0,0,.25,0,.57.57,0,0,0,.19-.13.46.46,0,0,0,.13-.21.57.57,0,0,0,.06-.25h.19a1.69,1.69,0,0,1-.08.34.69.69,0,0,1-.17.25.79.79,0,0,1-.25.17.87.87,0,0,1-.32.06.82.82,0,0,1-.4-.08.86.86,0,0,1-.3-.23,1.09,1.09,0,0,1-.17-.34,1.26,1.26,0,0,1-.06-.38,1.12,1.12,0,0,1,.06-.38,2.06,2.06,0,0,1,.17-.33.69.69,0,0,1,.3-.23.9.9,0,0,1,.4-.08,1.45,1.45,0,0,1,.28,0,.6.6,0,0,1,.25.13,2,2,0,0,1,.19.21.61.61,0,0,1,.08.27h-.17v0Z"/><path class="cls-1" d="M27.62,12a.85.85,0,0,1-.42-.08,1.31,1.31,0,0,1-.32-.23,1.14,1.14,0,0,1-.19-.34,1.44,1.44,0,0,1-.06-.4,1.25,1.25,0,0,1,.06-.4,1.33,1.33,0,0,1,.19-.35.62.62,0,0,1,.32-.23,1,1,0,0,1,.42-.08,1.54,1.54,0,0,1,.3,0,.4.4,0,0,1,.25.13.63.63,0,0,1,.19.21,2,2,0,0,1,.11.29v.06h-.3v0a.91.91,0,0,0-.08-.18.32.32,0,0,0-.13-.13.45.45,0,0,0-.17-.08.62.62,0,0,0-.19,0,.76.76,0,0,0-.32.06.43.43,0,0,0-.21.19.71.71,0,0,0-.13.24,1.77,1.77,0,0,0,0,.3,1.36,1.36,0,0,0,0,.3.4.4,0,0,0,.13.25,1,1,0,0,0,.21.19.73.73,0,0,0,.32.06.79.79,0,0,0,.23,0,.3.3,0,0,0,.17-.13,1.22,1.22,0,0,0,.13-.19c0-.06,0-.15.06-.23v0h.3v.06a1.42,1.42,0,0,1-.08.34.87.87,0,0,1-.19.28.73.73,0,0,1-.28.17Zm0-2.07a.74.74,0,0,0-.38.08,1.21,1.21,0,0,0-.28.21.88.88,0,0,0-.17.32,1.15,1.15,0,0,0-.06.37,1.26,1.26,0,0,0,.06.38.71.71,0,0,0,.17.32.67.67,0,0,0,.28.21,1.07,1.07,0,0,0,.38.08,1.36,1.36,0,0,0,.3,0,.7.7,0,0,0,.23-.15,1,1,0,0,0,.17-.23,1.21,1.21,0,0,0,.08-.25h-.08l-.06.21a.62.62,0,0,1-.15.21,1,1,0,0,1-.21.15.61.61,0,0,1-.28.06.68.68,0,0,1-.36-.08.75.75,0,0,1-.25-.21,1.2,1.2,0,0,1-.15-.3,1.76,1.76,0,0,1,0-.34,2,2,0,0,1,0-.34.73.73,0,0,1,.15-.29.64.64,0,0,1,.25-.21.73.73,0,0,1,.36-.08.93.93,0,0,1,.23,0,.62.62,0,0,1,.19.11.61.61,0,0,1,.15.17.54.54,0,0,1,.08.19h.08a.54.54,0,0,0-.08-.19,1.45,1.45,0,0,0-.17-.19,1.23,1.23,0,0,0-.23-.11A.32.32,0,0,0,27.62,9.89Z"/><path class="cls-1" d="M31.43,9.89h.18v.86H32.8V9.89H33v2H32.8v-1H31.61v1h-.18Z"/><path class="cls-1" d="M33.06,11.92h-.3v-1H31.68v1h-.29V9.83h.29v.86h1.08V9.83h.3Zm-.19-.1H33V9.94h-.08v.86h-1.3V9.94H31.5v1.88h.07v-1h1.3Z"/><path class="cls-1" d="M41.27,11.88h-.13l0-.36h0a2.14,2.14,0,0,1-.13.19l-.17.13a.29.29,0,0,1-.19.06.68.68,0,0,1-.2,0,.82.82,0,0,1-.4-.08.86.86,0,0,1-.3-.23,1.09,1.09,0,0,1-.17-.34,1.26,1.26,0,0,1-.06-.38,1.12,1.12,0,0,1,.06-.38,2.06,2.06,0,0,1,.17-.33A.69.69,0,0,1,40,10a.9.9,0,0,1,.4-.08,1.35,1.35,0,0,1,.29,0A.6.6,0,0,1,41,10a2,2,0,0,1,.19.21,1.69,1.69,0,0,1,.11.27h-.19a.29.29,0,0,0-.06-.16l-.13-.17-.19-.13a1.09,1.09,0,0,0-.24,0,.61.61,0,0,0-.34.08,1.06,1.06,0,0,0-.23.19.68.68,0,0,0-.13.27,1.75,1.75,0,0,0,0,.32,1.75,1.75,0,0,0,0,.32.6.6,0,0,0,.13.28.67.67,0,0,0,.23.19.81.81,0,0,0,.34.08.72.72,0,0,0,.29-.06.42.42,0,0,0,.21-.15.53.53,0,0,0,.13-.23,1.28,1.28,0,0,0,0-.3h-.67v-.17h.84l0,1Z"/><path class="cls-1" d="M40.43,12a.85.85,0,0,1-.42-.08,1.31,1.31,0,0,1-.32-.23,1.14,1.14,0,0,1-.19-.34,1.44,1.44,0,0,1-.06-.4,1.25,1.25,0,0,1,.06-.4,1.33,1.33,0,0,1,.19-.35A.62.62,0,0,1,40,9.93a1,1,0,0,1,.42-.08,1.76,1.76,0,0,1,.31,0A.9.9,0,0,1,41,10a.54.54,0,0,1,.19.23,2,2,0,0,1,.11.29l0,.06H41v0a.37.37,0,0,0,0-.14.27.27,0,0,0-.13-.15.56.56,0,0,0-.19-.11.78.78,0,0,0-.22,0,.76.76,0,0,0-.32.06.48.48,0,0,0-.21.19.71.71,0,0,0-.13.24,1.77,1.77,0,0,0,0,.3,1.36,1.36,0,0,0,0,.3.4.4,0,0,0,.13.25,1,1,0,0,0,.21.19.73.73,0,0,0,.32.06,1.17,1.17,0,0,0,.27,0,.41.41,0,0,0,.19-.15.46.46,0,0,0,.13-.21.79.79,0,0,0,0-.23h-.67v-.25h.95V12h-.23l0-.25s0,0,0,.06a.36.36,0,0,1-.17.13.66.66,0,0,1-.21.08A1.53,1.53,0,0,0,40.43,12Zm0-2.07a.74.74,0,0,0-.38.08,1.21,1.21,0,0,0-.28.21,1.07,1.07,0,0,0-.17.32,1.15,1.15,0,0,0-.06.37,1.26,1.26,0,0,0,.06.38.71.71,0,0,0,.17.32.67.67,0,0,0,.28.21,1.07,1.07,0,0,0,.38.08.55.55,0,0,0,.18,0l.17-.06a.33.33,0,0,0,.15-.11A1,1,0,0,0,41,11.5l0,0h.08v0l0,.32h0v-.91h-.71V11h.67v0a1.75,1.75,0,0,1,0,.32.56.56,0,0,1-.15.25,1.24,1.24,0,0,1-.23.17.71.71,0,0,1-.31.06.68.68,0,0,1-.36-.08.75.75,0,0,1-.25-.21,1.2,1.2,0,0,1-.15-.3,1.76,1.76,0,0,1,0-.34,2,2,0,0,1,0-.34.73.73,0,0,1,.15-.29.64.64,0,0,1,.25-.21.73.73,0,0,1,.36-.08,1.17,1.17,0,0,1,.27,0,1.07,1.07,0,0,1,.21.13.8.8,0,0,1,.15.17l.06.15h.08a.66.66,0,0,0-.08-.21.53.53,0,0,0-.17-.19l-.23-.13A1.18,1.18,0,0,0,40.43,9.89Z"/><path class="cls-1" d="M44.34,9.89h.91a.82.82,0,0,1,.23,0,.77.77,0,0,1,.19.08.36.36,0,0,1,.13.17.43.43,0,0,1,0,.23.59.59,0,0,1-.11.33.47.47,0,0,1-.3.17h0a.43.43,0,0,1,.17,0,.29.29,0,0,1,.11.11l.06.13a.47.47,0,0,1,0,.17v.13a.36.36,0,0,0,0,.15s0,.11,0,.15,0,.08,0,.11h-.21a.07.07,0,0,1,0-.06s0-.06,0-.08V11.6a.75.75,0,0,0,0-.21.35.35,0,0,0-.06-.19.19.19,0,0,0-.13-.13s-.13,0-.21,0h-.72v.87h-.19v-2h.05Zm.19.93h.7a.5.5,0,0,0,.17,0s.11,0,.13-.08a.24.24,0,0,0,.08-.13.38.38,0,0,0,0-.16.44.44,0,0,0-.11-.3.45.45,0,0,0-.32-.11h-.7v.8Z"/><path class="cls-1" d="M46,11.92h-.36l0,0s0,0,0-.08,0-.06,0-.08V11.6a.75.75,0,0,0,0-.21.43.43,0,0,0,0-.17.29.29,0,0,0-.11-.11.43.43,0,0,0-.17,0h-.68V12H44.3V9.87h1a1.09,1.09,0,0,1,.25,0,.53.53,0,0,1,.21.11.58.58,0,0,1,.15.19.51.51,0,0,1,.06.25.66.66,0,0,1-.11.35.61.61,0,0,1-.17.15,0,0,0,0,1,0,0,.58.58,0,0,1,.13.11s0,.11.06.15a.5.5,0,0,1,0,.17v.13a.47.47,0,0,0,0,.15s0,.08,0,.13a.1.1,0,0,0,0,.08Zm-.3-.1h.08s0,0,0,0a.39.39,0,0,1,0-.15.39.39,0,0,0,0-.15v-.13c0-.06,0-.11,0-.15s0-.08,0-.13a.16.16,0,0,0-.08-.08.3.3,0,0,0-.15,0h0l0,0a.27.27,0,0,1,.13.15q0,.09.06.21c0,.06,0,.15,0,.21v.14a.15.15,0,0,0,0,.08A.12.12,0,0,1,45.74,11.82Zm-1.34,0h.08v-.89h.76a.44.44,0,0,1,.17,0v-.09l0,0a.43.43,0,0,0,.25-.15.49.49,0,0,0,.08-.29.65.65,0,0,0,0-.21.33.33,0,0,0-.11-.15.53.53,0,0,0-.17-.08.75.75,0,0,0-.21,0h-.87l0,1.88Zm.83-.94h-.76V10h.76a.47.47,0,0,1,.36.13.44.44,0,0,1,.13.32.65.65,0,0,1,0,.18.33.33,0,0,1-.11.15.55.55,0,0,1-.15.08Zm-.63-.11h.66a.39.39,0,0,0,.15,0l.13-.06a.19.19,0,0,0,.08-.11.3.3,0,0,0,0-.14.33.33,0,0,0-.08-.25.38.38,0,0,0-.28-.08h-.66v.67h0Z"/><path class="cls-1" d="M48.79,10.88a1.12,1.12,0,0,1,.06-.38,2.06,2.06,0,0,1,.17-.33.69.69,0,0,1,.3-.23.85.85,0,0,1,.39-.08.82.82,0,0,1,.4.08.86.86,0,0,1,.3.23,1.15,1.15,0,0,1,.17.33,1.26,1.26,0,0,1,.06.38,1.12,1.12,0,0,1-.06.38,1.8,1.8,0,0,1-.17.34.69.69,0,0,1-.3.23.9.9,0,0,1-.4.08.78.78,0,0,1-.39-.08.86.86,0,0,1-.3-.23,1.09,1.09,0,0,1-.17-.34A1.21,1.21,0,0,1,48.79,10.88Zm.19,0a1.75,1.75,0,0,0,0,.32.6.6,0,0,0,.13.28.69.69,0,0,0,.23.19.76.76,0,0,0,.33.08.66.66,0,0,0,.34-.08,1.06,1.06,0,0,0,.23-.19.66.66,0,0,0,.13-.28,1.75,1.75,0,0,0,0-.32,1.75,1.75,0,0,0,0-.32.61.61,0,0,0-.13-.27.69.69,0,0,0-.23-.19.81.81,0,0,0-.34-.08.58.58,0,0,0-.33.08,1.06,1.06,0,0,0-.23.19.68.68,0,0,0-.13.27A1.75,1.75,0,0,0,49,10.88Z"/><path class="cls-1" d="M49.74,12a.81.81,0,0,1-.41-.08,1.31,1.31,0,0,1-.32-.23,1.14,1.14,0,0,1-.19-.34,1.44,1.44,0,0,1-.06-.4,1.25,1.25,0,0,1,.06-.4,1.33,1.33,0,0,1,.19-.35.62.62,0,0,1,.32-.23,1,1,0,0,1,.41-.08.85.85,0,0,1,.42.08,1.31,1.31,0,0,1,.32.23,1.08,1.08,0,0,1,.19.35,1.44,1.44,0,0,1,.06.4,1.25,1.25,0,0,1-.06.4.94.94,0,0,1-.19.34.62.62,0,0,1-.32.23A.93.93,0,0,1,49.74,12Zm0-2.07a.7.7,0,0,0-.37.08,1,1,0,0,0-.28.21.88.88,0,0,0-.17.32,1.15,1.15,0,0,0-.06.37,1.26,1.26,0,0,0,.06.38.71.71,0,0,0,.17.32.67.67,0,0,0,.28.21,1,1,0,0,0,.37.08.74.74,0,0,0,.38-.08,1.21,1.21,0,0,0,.28-.21,1.07,1.07,0,0,0,.17-.32,1.26,1.26,0,0,0,.06-.38,1.15,1.15,0,0,0-.06-.37.71.71,0,0,0-.17-.32.67.67,0,0,0-.28-.21A1.07,1.07,0,0,0,49.74,9.89Zm0,1.93a.65.65,0,0,1-.35-.08.75.75,0,0,1-.25-.21,1.2,1.2,0,0,1-.15-.3,1.76,1.76,0,0,1,0-.34,2,2,0,0,1,0-.34.73.73,0,0,1,.15-.29.64.64,0,0,1,.25-.21.69.69,0,0,1,.35-.08.68.68,0,0,1,.36.08.75.75,0,0,1,.25.21,1.32,1.32,0,0,1,.15.29,1.76,1.76,0,0,1,0,.34,2,2,0,0,1,0,.34.71.71,0,0,1-.15.3.64.64,0,0,1-.25.21A1.45,1.45,0,0,1,49.74,11.82Zm0-1.76a.68.68,0,0,0-.31.06.48.48,0,0,0-.21.19.82.82,0,0,0-.13.24,1.77,1.77,0,0,0,0,.3,1.36,1.36,0,0,0,0,.3.4.4,0,0,0,.13.25,1,1,0,0,0,.21.19.68.68,0,0,0,.31.06.76.76,0,0,0,.32-.06.43.43,0,0,0,.21-.19.75.75,0,0,0,.13-.25,1.77,1.77,0,0,0,0-.3,1.36,1.36,0,0,0,0-.3.41.41,0,0,0-.13-.24.56.56,0,0,0-.53-.25Z"/><path class="cls-1" d="M53.66,9.89h.19v1.22a1.36,1.36,0,0,0,0,.3.36.36,0,0,0,.11.19.56.56,0,0,0,.19.11.82.82,0,0,0,.25,0,1.09,1.09,0,0,0,.25,0,.62.62,0,0,0,.19-.11.86.86,0,0,0,.11-.19,1.14,1.14,0,0,0,0-.3V9.89h.19v1.27a1.54,1.54,0,0,1,0,.3.65.65,0,0,1-.13.23,1,1,0,0,1-.23.17,1,1,0,0,1-.36.06,1,1,0,0,1-.36-.06.6.6,0,0,1-.23-.17.53.53,0,0,1-.13-.23,1.28,1.28,0,0,1,0-.3V9.9h0Z"/><path class="cls-1" d="M54.42,12A1,1,0,0,1,54,11.9a.69.69,0,0,1-.25-.17.64.64,0,0,1-.15-.25,1.54,1.54,0,0,1,0-.3V9.85h.3v1.29a1,1,0,0,0,0,.28.34.34,0,0,0,.11.17.71.71,0,0,0,.17.11.93.93,0,0,0,.47,0,.39.39,0,0,0,.17-.11.71.71,0,0,0,.11-.17,1.11,1.11,0,0,0,0-.28V9.85h.3v1.33a1.36,1.36,0,0,1,0,.3.43.43,0,0,1-.15.25.56.56,0,0,1-.25.17A1.86,1.86,0,0,1,54.42,12Zm-.72-2v1.23a1.18,1.18,0,0,0,0,.28.39.39,0,0,0,.13.21.8.8,0,0,0,.21.15.83.83,0,0,0,.34.06.86.86,0,0,0,.34-.06.47.47,0,0,0,.21-.15.46.46,0,0,0,.13-.21,1.11,1.11,0,0,0,0-.28V9.94h-.08v1.18a1.39,1.39,0,0,1,0,.32.31.31,0,0,1-.13.21.92.92,0,0,1-.21.13,1.19,1.19,0,0,1-.53,0,.39.39,0,0,1-.21-.13.46.46,0,0,1-.13-.21,1.32,1.32,0,0,1,0-.32V9.94H53.7Z"/><path class="cls-1" d="M58.28,9.89h.88a.79.79,0,0,1,.23,0,.62.62,0,0,1,.19.11s.08.11.13.17a.65.65,0,0,1,0,.45.3.3,0,0,1-.13.17.56.56,0,0,1-.19.11.79.79,0,0,1-.23,0h-.69v.85h-.19Zm.19,1h.65a.5.5,0,0,0,.32-.11.35.35,0,0,0,.13-.29.35.35,0,0,0-.13-.3.5.5,0,0,0-.32-.11h-.65Z"/><path class="cls-1" d="M58.52,11.92h-.29V9.83h.92a.93.93,0,0,1,.25,0,.39.39,0,0,1,.21.13.54.54,0,0,1,.13.19,1.09,1.09,0,0,1,0,.25.75.75,0,0,1,0,.24.38.38,0,0,1-.13.19.46.46,0,0,1-.21.13,1.09,1.09,0,0,1-.25,0h-.64v.88Zm-.18-.1h.08V11h.73a.93.93,0,0,0,.23,0,.39.39,0,0,0,.17-.11.71.71,0,0,0,.11-.17.79.79,0,0,0,0-.2.65.65,0,0,0,0-.21.39.39,0,0,0-.11-.17.71.71,0,0,0-.17-.11.79.79,0,0,0-.23,0h-.82v1.9Zm.78-.92h-.69V10h.69a.61.61,0,0,1,.36.11.47.47,0,0,1,.15.34.35.35,0,0,1-.15.33A.45.45,0,0,1,59.12,10.9Zm-.6-.1h.59a.48.48,0,0,0,.3-.08.37.37,0,0,0,.11-.27.36.36,0,0,0-.11-.28.4.4,0,0,0-.3-.08h-.59Z"/><path class="cls-1" d="M27.07,4.89A2.37,2.37,0,0,1,27.69,4a1.28,1.28,0,0,1,.88-.36,2.55,2.55,0,0,1,1.3.47A2.36,2.36,0,0,0,31,4.58a.93.93,0,0,0,.63-.2,2.1,2.1,0,0,0,.51-.64l.36.23a2.75,2.75,0,0,1-.62.8,1.35,1.35,0,0,1-1,.4,2.49,2.49,0,0,1-1.32-.47,2.4,2.4,0,0,0-1.14-.46.82.82,0,0,0-.57.21,1.67,1.67,0,0,0-.45.61Z"/></g></g></svg>