<svg xmlns="http://www.w3.org/2000/svg" viewBox="0 0 114.58 23"><defs><style>.cls-1{fill:#2676b7;}</style></defs><g id="Layer_2" data-name="Layer 2"><g id="layer"><path class="cls-1" d="M6.61,14.5H.08v-.75a7.87,7.87,0,0,0,.8-.07,4.05,4.05,0,0,0,.72-.12.72.72,0,0,0,.48-.36,1,1,0,0,0,.16-.65V2.12a1.38,1.38,0,0,0-.12-.61,1,1,0,0,0-.53-.4C1.38,1,1.15,1,.82.86A3.2,3.2,0,0,0,.06.75V0H6.59V.73A6.45,6.45,0,0,0,5.83.8,4,4,0,0,0,5.06,1a.8.8,0,0,0-.53.4A1.66,1.66,0,0,0,4.41,2V12.44a1.09,1.09,0,0,0,.16.61,1,1,0,0,0,.47.4,4.76,4.76,0,0,0,.69.15c.33.08.61.08.8.12l.08.78Z"/><path class="cls-1" d="M22.35,3.29a3.36,3.36,0,0,0-.73.11,1.86,1.86,0,0,0-.68.25c-.21.11-.33.4-.4.8A7.87,7.87,0,0,0,20.42,6v8.63h-.74L12.57,5V11a9,9,0,0,0,.11,1.59,1.24,1.24,0,0,0,.41.76,1.64,1.64,0,0,0,.76.33,3.54,3.54,0,0,0,.76.15v.61H9.86v-.61a6.82,6.82,0,0,0,.76-.15,2.35,2.35,0,0,0,.65-.25,1.16,1.16,0,0,0,.4-.73,7.54,7.54,0,0,0,.12-1.62V5.31a2.42,2.42,0,0,0-.12-.76,1.55,1.55,0,0,0-.36-.61,2.7,2.7,0,0,0-.8-.48,2.76,2.76,0,0,0-.81-.21V2.64h3.37l6.61,9V6.07a7.89,7.89,0,0,0-.12-1.58,1.24,1.24,0,0,0-.36-.73,2.67,2.67,0,0,0-.77-.32,4.55,4.55,0,0,0-.8-.15V2.67h4.8l-.08.62Z"/><path class="cls-1" d="M47,4.11A5.63,5.63,0,0,1,48.2,6.06a7.39,7.39,0,0,1,.44,2.56,7.56,7.56,0,0,1-.44,2.56,5.52,5.52,0,0,1-1.26,1.94,5.42,5.42,0,0,1-1.78,1.23,5.76,5.76,0,0,1-2.2.44,6.08,6.08,0,0,1-2.27-.44,5.16,5.16,0,0,1-1.78-1.3,6.31,6.31,0,0,1-1.18-2,7,7,0,0,1-.44-2.48,6.86,6.86,0,0,1,.44-2.56A6,6,0,0,1,39,4.11a5.45,5.45,0,0,1,1.83-1.26,5.62,5.62,0,0,1,4.36,0A5.06,5.06,0,0,1,47,4.11Zm-1.22,8.35a5,5,0,0,0,.69-1.71,12.23,12.23,0,0,0,.21-2.15,9.31,9.31,0,0,0-.25-2.24,5.65,5.65,0,0,0-.69-1.74,3.23,3.23,0,0,0-1.12-1.09,3.43,3.43,0,0,0-3.29,0,4,4,0,0,0-1.13,1.22,6.74,6.74,0,0,0-.61,1.71,12.07,12.07,0,0,0-.21,2.06,10.91,10.91,0,0,0,.21,2.16,5.32,5.32,0,0,0,.69,1.7,3.36,3.36,0,0,0,1.13,1.12A2.94,2.94,0,0,0,43,14a2.88,2.88,0,0,0,1.59-.41A2.46,2.46,0,0,0,45.75,12.46Z"/><path class="cls-1" d="M86,11a7.36,7.36,0,0,1-.53,1.19,6.11,6.11,0,0,1-.81,1.22,1.86,1.86,0,0,1-.47.25l-.65.11a4.24,4.24,0,0,1-.77,0h-.72a7.66,7.66,0,0,1-1,0,1.17,1.17,0,0,1-.61-.21.64.64,0,0,1-.29-.44A4.39,4.39,0,0,1,80,12.3V8.77h1.34a5.81,5.81,0,0,1,.86.07,1.38,1.38,0,0,1,.57.41,1.52,1.52,0,0,1,.29.65,3.17,3.17,0,0,1,.15.85h.61V6.13h-.61a6.48,6.48,0,0,1-.15.77,2.19,2.19,0,0,1-.33.65,1.08,1.08,0,0,1-.53.4,3.21,3.21,0,0,1-.94.11H80V3.36h3.27a2.45,2.45,0,0,1,1.91,1.05l.61,1h.65l-.21-2.8H76.58v.61a4.33,4.33,0,0,1,.62.07,2.08,2.08,0,0,1,.61.21.53.53,0,0,1,.36.37.83.83,0,0,1,.08.47v8.49a.78.78,0,0,1-.12.47,1,1,0,0,1-.36.33,2.23,2.23,0,0,1-.54.11c-.28,0-.47,0-.65.08v.61h9.78l.25-3.5C86.61,11,86,11,86,11Z"/><path class="cls-1" d="M94.77,14.77a5,5,0,0,1-2-.4A5.42,5.42,0,0,1,91,13.18a6,6,0,0,1-1.18-1.91,7.08,7.08,0,0,1-.44-2.56,7.24,7.24,0,0,1,.44-2.56,6.81,6.81,0,0,1,1.18-2A4.75,4.75,0,0,1,92.82,2.9,5.8,5.8,0,0,1,95,2.46a6.1,6.1,0,0,1,1.58.21,6.32,6.32,0,0,1,1.34.62l.33-.58h.65L99,6.93H98.3a6.78,6.78,0,0,0-.4-1.33,4,4,0,0,0-.61-1.23,3.4,3.4,0,0,0-.93-.89,2.47,2.47,0,0,0-1.27-.33,3.19,3.19,0,0,0-1.5.36,4.67,4.67,0,0,0-1.23,1.06,5.16,5.16,0,0,0-.76,1.7,10.55,10.55,0,0,0-.29,2.31,6.33,6.33,0,0,0,.29,2.06,5.94,5.94,0,0,0,.8,1.66,3.42,3.42,0,0,0,1.26,1.09,3,3,0,0,0,1.63.4,3.4,3.4,0,0,0,1.22-.21,3.35,3.35,0,0,0,1-.57,4.86,4.86,0,0,0,.73-.8,8.17,8.17,0,0,0,.53-1l.61.29A5,5,0,0,1,97.44,14,4.12,4.12,0,0,1,94.77,14.77Z"/><path class="cls-1" d="M114.52,14.5h-4.91v-.61c.12,0,.33,0,.58,0s.4,0,.53-.08a.74.74,0,0,0,.36-.28,1.05,1.05,0,0,0,.12-.54V8.73h-5.56v4.11a1.33,1.33,0,0,0,.08.47,1.55,1.55,0,0,0,.36.37c.08,0,.25.07.48.15a4.44,4.44,0,0,0,.57.08v.61h-4.91v-.61c.11,0,.32,0,.57,0s.4,0,.54-.08a.78.78,0,0,0,.36-.28,1.05,1.05,0,0,0,.12-.54V4.45a1.1,1.1,0,0,0-.12-.48,1.23,1.23,0,0,0-.36-.36c-.15-.08-.33-.11-.54-.21a3.24,3.24,0,0,0-.57-.08V2.71h5v.58a3.88,3.88,0,0,0-.58.07,1.64,1.64,0,0,0-.47.12c-.21.07-.33.15-.37.32a1.15,1.15,0,0,0-.07.48V7.93h5.55V4.39a1,1,0,0,0-.11-.47,1.15,1.15,0,0,0-.36-.37c-.16-.07-.33-.11-.54-.21a3.15,3.15,0,0,0-.57-.07V2.66h4.83V3.3a4.22,4.22,0,0,0-.57.08,1.86,1.86,0,0,0-.48.12c-.21.07-.32.15-.36.32a1,1,0,0,0-.08.48v8.48a1.44,1.44,0,0,0,.08.48,1.75,1.75,0,0,0,.36.36,5,5,0,0,0,.48.15,4.69,4.69,0,0,0,.57.08v.65Z"/><path class="cls-1" d="M34.88,2.73H25.2V3.3a4.66,4.66,0,0,1,.61.08,1.9,1.9,0,0,1,.61.21.54.54,0,0,1,.36.36.88.88,0,0,1,.08.48V13a1.22,1.22,0,0,1-.12.54.94.94,0,0,1-.36.32,1.3,1.3,0,0,1-.53.08,4.26,4.26,0,0,1-.65,0v.61h5.12v-.61a5.6,5.6,0,0,1-.65-.08c-.29,0-.44-.11-.54-.11a.72.72,0,0,1-.36-.37,1,1,0,0,1-.12-.48V8.84H30a2.93,2.93,0,0,1,.9.12,1.33,1.33,0,0,1,.61.4,2.1,2.1,0,0,1,.33.69,4.2,4.2,0,0,1,.15.8h.65V6.19H32a5.44,5.44,0,0,1-.15.8,2.48,2.48,0,0,1-.29.57A1.66,1.66,0,0,1,31,8a3.52,3.52,0,0,1-1,.11H28.65V3.38h3.29a2.33,2.33,0,0,1,1.87,1c.16.25.61,1,.61,1h.65Z"/><path class="cls-1" d="M73.87,0H61.7l-.21,3.29h.77s.53-.94.72-1.23A3.08,3.08,0,0,1,65.22.8h1.55V12.36a1.38,1.38,0,0,1-.12.61.84.84,0,0,1-.48.44c-.11,0-.36.11-.76.21a5,5,0,0,1-.9.12v.72h6.86v-.71a4.41,4.41,0,0,1-.9-.11,3.33,3.33,0,0,1-.76-.21.87.87,0,0,1-.48-.44,1.61,1.61,0,0,1-.15-.61V.82h1.54a2.83,2.83,0,0,1,2.24,1.26c.21.29.72,1.22.72,1.22h.77Z"/><path class="cls-1" d="M.08,19H1.81a1.47,1.47,0,0,1,.44,0,1.44,1.44,0,0,1,.37.15.73.73,0,0,1,.25.33.87.87,0,0,1,.07.44,1.09,1.09,0,0,1-.21.64.86.86,0,0,1-.57.33h0a.75.75,0,0,1,.32.08.43.43,0,0,1,.21.21,2.68,2.68,0,0,1,.12.24.88.88,0,0,1,0,.33V22a.83.83,0,0,0,0,.28c0,.08,0,.21,0,.29s0,.15.08.21H2.6a.14.14,0,0,1,0-.11s0-.12,0-.16v-.26a1.43,1.43,0,0,0,0-.41.65.65,0,0,0-.11-.36.39.39,0,0,0-.25-.25.69.69,0,0,0-.4-.07H.34v1.66H0V19H.08Zm.36,1.8H1.78a.88.88,0,0,0,.32,0c.08,0,.21-.08.25-.16a.42.42,0,0,0,.15-.24A.8.8,0,0,0,2.58,20a.85.85,0,0,0-.21-.57.86.86,0,0,0-.61-.21H.42v1.55Z"/><path class="cls-1" d="M3.32,22.85H2.64l0,0s0-.08,0-.15,0-.12,0-.16v-.26a1.43,1.43,0,0,0,0-.41.79.79,0,0,0-.07-.32.6.6,0,0,0-.21-.21.8.8,0,0,0-.33-.08H.57v1.7H0v-4H1.87a2,2,0,0,1,.48.08,1,1,0,0,1,.4.21.89.89,0,0,1,.29.36,1.09,1.09,0,0,1,.11.48,1.22,1.22,0,0,1-.21.69,1.08,1.08,0,0,1-.32.28,0,0,0,0,1,0,0,1.37,1.37,0,0,1,.24.21.89.89,0,0,1,.12.29.88.88,0,0,1,0,.32v.25a1.09,1.09,0,0,0,0,.29c0,.07,0,.15,0,.25a.2.2,0,0,0,.08.15Zm-.57-.19H2.9s0,0,0-.08a.73.73,0,0,1,0-.29.68.68,0,0,0,0-.28v-.25c0-.12,0-.21,0-.29a.79.79,0,0,0-.08-.25.28.28,0,0,0-.15-.15A.52.52,0,0,0,2.24,21h0a.1.1,0,0,1,.07,0,.54.54,0,0,1,.25.29c0,.11.08.25.12.4s0,.29,0,.4v.27a.26.26,0,0,0,0,.15A.24.24,0,0,1,2.75,22.66Zm-2.56,0H.34V21H1.8a1.06,1.06,0,0,1,.32,0v-.17l.08,0a.75.75,0,0,0,.47-.28,1,1,0,0,0,.16-.58,1.24,1.24,0,0,0-.08-.4.58.58,0,0,0-.21-.28.88.88,0,0,0-.32-.16,1.89,1.89,0,0,0-.41,0H.19Zm1.59-1.8H.32v-1.7H1.78a.89.89,0,0,1,.68.25.81.81,0,0,1,.25.61,1.53,1.53,0,0,1-.07.36.68.68,0,0,1-.21.29,1.34,1.34,0,0,1-.29.15C2,20.82,1.89,20.86,1.78,20.86ZM.55,20.65H1.81a.73.73,0,0,0,.29,0l.25-.11c.08,0,.11-.12.15-.21a.62.62,0,0,0,0-.29.66.66,0,0,0-.15-.48.76.76,0,0,0-.54-.15H.59l0,1.28Z"/><path class="cls-1" d="M8.79,19h2.63v.32H9.17v1.38h2.1V21H9.17v1.5h2.31v.29H8.79Z"/><path class="cls-1" d="M11.56,22.85H8.67v-4h2.85v.53H9.25v1.18h2.1v.54H9.25v1.3h2.31Zm-2.64-.19H11.4v-.12H9.07V20.82h2.11v-.07H9.07V19.16h2.28v-.11H8.92Z"/><path class="cls-1" d="M17.31,21.51a1.81,1.81,0,0,0,.07.48,1,1,0,0,0,.29.32,1.2,1.2,0,0,0,.4.16,2.58,2.58,0,0,0,.48,0,1.27,1.27,0,0,0,.32,0,3,3,0,0,0,.33-.12.66.66,0,0,0,.25-.25.53.53,0,0,0,.11-.36.77.77,0,0,0-.07-.29.64.64,0,0,0-.22-.21L19,21.13a.79.79,0,0,0-.29-.08l-.8-.21-.33-.11a.64.64,0,0,1-.28-.16c-.08-.07-.12-.15-.21-.24A1.23,1.23,0,0,1,17,20a1,1,0,0,1,0-.32,1.16,1.16,0,0,1,.21-.37,1,1,0,0,1,.4-.28,1.51,1.51,0,0,1,.65-.12,2.11,2.11,0,0,1,.53.08.79.79,0,0,1,.44.25,1.42,1.42,0,0,1,.33.36,1.27,1.27,0,0,1,.11.54h-.36a.85.85,0,0,0-.08-.37.48.48,0,0,0-.25-.28.8.8,0,0,0-.32-.16,1.63,1.63,0,0,0-.4,0,1.42,1.42,0,0,0-.36,0l-.29.12a.45.45,0,0,0-.21.25.8.8,0,0,0-.08.36.59.59,0,0,0,0,.25.39.39,0,0,0,.12.15.55.55,0,0,0,.21.12,1.29,1.29,0,0,1,.21.07l.93.25.36.12a.65.65,0,0,1,.33.21.79.79,0,0,1,.21.28,1.24,1.24,0,0,1,.08.4V22a.67.67,0,0,1-.08.24.92.92,0,0,1-.15.25l-.25.25a1.07,1.07,0,0,1-.4.15,2.46,2.46,0,0,1-.58.08,2.66,2.66,0,0,1-.61-.08.71.71,0,0,1-.47-.24,1.65,1.65,0,0,1-.33-.41,1,1,0,0,1-.08-.61h.37v-.15Z"/><path class="cls-1" d="M18.49,22.92a3.24,3.24,0,0,1-.65-.07,1.85,1.85,0,0,1-.53-.25,1.24,1.24,0,0,1-.33-.44,1.2,1.2,0,0,1-.07-.65v-.08h.57v.12a1.5,1.5,0,0,0,.08.44.46.46,0,0,0,.24.28.8.8,0,0,0,.37.16,1.75,1.75,0,0,0,.76,0l.29-.12a.6.6,0,0,0,.21-.21.42.42,0,0,0,.07-.28.74.74,0,0,0,0-.25.31.31,0,0,0-.16-.16l-.25-.11c-.07,0-.15,0-.24-.08L18,21a1.82,1.82,0,0,1-.33-.11.65.65,0,0,1-.28-.21.9.9,0,0,1-.21-.29,1.18,1.18,0,0,1-.08-.4,1.23,1.23,0,0,1,0-.36,1.19,1.19,0,0,1,.21-.4,1.27,1.27,0,0,1,.44-.33,1.9,1.9,0,0,1,.68-.11,3.29,3.29,0,0,1,.58.07,1.31,1.31,0,0,1,.48.25,2.08,2.08,0,0,1,.32.4,1.34,1.34,0,0,1,.11.58v.07h-.57V20.1a.8.8,0,0,0-.08-.33,1,1,0,0,0-.21-.25,1.28,1.28,0,0,0-.28-.15,1,1,0,0,0-.69,0l-.29.12c-.07,0-.11.11-.15.21s-.11.11-.11.24a.53.53,0,0,0,0,.21s0,.08.08.12a.2.2,0,0,0,.15.07l.21.08.94.25.4.11a.81.81,0,0,1,.33.21c.07.08.15.21.24.33a1.44,1.44,0,0,1,.08.44V22a.79.79,0,0,1-.08.25,2.07,2.07,0,0,1-.15.28,1.44,1.44,0,0,1-.28.25,1,1,0,0,1-.44.15A4.13,4.13,0,0,1,18.49,22.92Zm-1.41-1.33a1.93,1.93,0,0,0,.07.44.87.87,0,0,0,.29.36,2.56,2.56,0,0,0,.44.21,2.68,2.68,0,0,0,1.13,0,.93.93,0,0,0,.36-.15,1.39,1.39,0,0,0,.25-.21l.11-.21a.38.38,0,0,0,0-.21v-.16a1.53,1.53,0,0,0-.07-.36,1.39,1.39,0,0,0-.21-.25.72.72,0,0,0-.29-.15l-.36-.12-.94-.24a.72.72,0,0,1-.25-.08l-.21-.12c-.08,0-.11-.11-.15-.21a.59.59,0,0,1,0-.28,1.18,1.18,0,0,1,.08-.4,1.16,1.16,0,0,1,.24-.29A.84.84,0,0,1,17.9,19a2.68,2.68,0,0,1,.8,0c.12,0,.25.11.36.15a.67.67,0,0,1,.25.33.75.75,0,0,1,.08.32h.15a1.53,1.53,0,0,0-.07-.36,1,1,0,0,0-.29-.33,3,3,0,0,0-.4-.21,2.08,2.08,0,0,0-.54-.07,1.42,1.42,0,0,0-.61.11,1.14,1.14,0,0,0-.36.25.53.53,0,0,0-.15.32.83.83,0,0,0,0,.29,1,1,0,0,0,.07.32,1,1,0,0,0,.16.25.6.6,0,0,0,.25.16l.32.11.86.21c.08,0,.21,0,.29.08s.21.07.28.15a.42.42,0,0,1,.21.25.75.75,0,0,1,.08.32.72.72,0,0,1-.11.4.89.89,0,0,1-.29.29,1.2,1.2,0,0,1-.36.15,2.06,2.06,0,0,1-.86,0,.68.68,0,0,1-.44-.21.65.65,0,0,1-.29-.36,1.44,1.44,0,0,1-.08-.44h-.11S17.08,21.59,17.08,21.59Z"/><path class="cls-1" d="M25.71,19h2.64v.32H26.08v1.38h2.1V21h-2.1v1.5h2.31v.29H25.71V19Z"/><path class="cls-1" d="M28.46,22.85H25.6v-4h2.84v.53H26.17v1.18h2.1v.54h-2.1v1.3h2.29Zm-2.67-.19h2.48v-.12H26V20.82h2.1v-.07H26V19.16h2.27v-.11H25.79Z"/><path class="cls-1" d="M35.17,19h.4l1.51,3.82h-.4l-.44-1.18H34.5l-.44,1.18h-.44Zm-.57,2.31h1.5l-.72-2Z"/><path class="cls-1" d="M37.19,22.85h-.61l-.44-1.19H34.56l-.44,1.19h-.61l1.62-4h.54Zm-.44-.19h.16l-1.42-3.61h-.11l.9,2.31H34.5l.9-2.31h-.12l-1.45,3.61H34l.44-1.19H36.3Zm-2-1.51H36l-.61-1.59Z"/><path class="cls-1" d="M42.6,19h1.74a1.53,1.53,0,0,1,.44,0,1.38,1.38,0,0,1,.36.15.67.67,0,0,1,.25.33.77.77,0,0,1,.08.44,1.16,1.16,0,0,1-.21.64.91.91,0,0,1-.58.33h0A.8.8,0,0,1,45,21a.52.52,0,0,1,.21.21c0,.07.07.15.11.24a.88.88,0,0,1,0,.33V22a.64.64,0,0,0,0,.28c0,.08,0,.21,0,.29a1,1,0,0,0,.07.21h-.4a.14.14,0,0,1,0-.11s0-.12,0-.16v-.26a1.89,1.89,0,0,0,0-.41.67.67,0,0,0-.12-.36.37.37,0,0,0-.25-.25c-.07-.07-.24-.07-.4-.07H42.87v1.66H42.5V19h.1Zm.36,1.8H44.3a.88.88,0,0,0,.32,0c.08,0,.21-.08.25-.16a.43.43,0,0,0,.16-.24A1,1,0,0,0,45.1,20a.8.8,0,0,0-.21-.57.82.82,0,0,0-.61-.21H42.94v1.55Z"/><path class="cls-1" d="M45.79,22.85h-.65l0,0s0-.08-.07-.15,0-.12,0-.16v-.26a1.43,1.43,0,0,0,0-.41.79.79,0,0,0-.08-.32.53.53,0,0,0-.21-.21.75.75,0,0,0-.32-.08H43v1.7h-.57v-4h1.87a2.09,2.09,0,0,1,.48.08,1.07,1.07,0,0,1,.68.57,1,1,0,0,1,.12.48,1.3,1.3,0,0,1-.21.69,1.12,1.12,0,0,1-.33.28,0,0,0,0,1,0,0,1.39,1.39,0,0,1,.25.21.86.86,0,0,1,.11.29.88.88,0,0,1,0,.32v.25a.83.83,0,0,0,0,.29c0,.07,0,.15,0,.25a.2.2,0,0,0,.08.15Zm-.52-.19h.16s0,0,0-.08a.73.73,0,0,1,0-.29.68.68,0,0,0,0-.28v-.25c0-.12,0-.21,0-.29a.73.73,0,0,0-.07-.25.33.33,0,0,0-.16-.15.52.52,0,0,0-.28-.08H44.7a.14.14,0,0,1,.08,0,.59.59,0,0,1,.25.29l.11.4c0,.11,0,.29,0,.4v.27a.26.26,0,0,0,0,.15C45.24,22.6,45.24,22.66,45.27,22.66Zm-2.59,0h.15V21h1.45a1.09,1.09,0,0,1,.33,0v-.17l.07,0a.81.81,0,0,0,.48-.28,1,1,0,0,0,.15-.58,1.59,1.59,0,0,0-.07-.4.65.65,0,0,0-.21-.28,1,1,0,0,0-.33-.16,1.8,1.8,0,0,0-.4,0H42.64l0,3.61Zm1.62-1.8H42.85v-1.7H44.3a.91.91,0,0,1,.69.25.85.85,0,0,1,.25.61,1.17,1.17,0,0,1-.08.36.68.68,0,0,1-.21.29,1,1,0,0,1-.29.15C44.55,20.82,44.41,20.86,44.3,20.86ZM43,20.65H44.3a.73.73,0,0,0,.29,0l.24-.11a.38.38,0,0,0,.16-.21A.62.62,0,0,0,45,20a.62.62,0,0,0-.16-.48.72.72,0,0,0-.53-.15H43.08v1.3h0Z"/><path class="cls-1" d="M54.12,20.1a1.34,1.34,0,0,0-.15-.4.89.89,0,0,0-.29-.29,1,1,0,0,0-.36-.15,1.24,1.24,0,0,0-.4-.08,1.2,1.2,0,0,0-.65.15,1.77,1.77,0,0,0-.44.37,1.19,1.19,0,0,0-.25.53,3.19,3.19,0,0,0-.08.61,3.19,3.19,0,0,0,.08.61,1.12,1.12,0,0,0,.25.54,1.27,1.27,0,0,0,.44.36,1.48,1.48,0,0,0,.65.15,1.91,1.91,0,0,0,.47-.07,1.25,1.25,0,0,0,.37-.25.88.88,0,0,0,.24-.4,1.1,1.1,0,0,0,.12-.48h.36a3.1,3.1,0,0,1-.15.65,1.36,1.36,0,0,1-.33.48,1.39,1.39,0,0,1-.47.32,1.58,1.58,0,0,1-.61.12,1.51,1.51,0,0,1-.77-.16,1.46,1.46,0,0,1-.57-.44,2.21,2.21,0,0,1-.33-.65,2.51,2.51,0,0,1-.11-.72,2.33,2.33,0,0,1,.11-.73,3.3,3.3,0,0,1,.33-.65,1.33,1.33,0,0,1,.57-.44,1.8,1.8,0,0,1,.77-.15,2.62,2.62,0,0,1,.53.08,1.17,1.17,0,0,1,.48.25,2.88,2.88,0,0,1,.36.4,1.1,1.1,0,0,1,.15.53h-.32V20.1Z"/><path class="cls-1" d="M52.93,22.92a1.57,1.57,0,0,1-.8-.15,2.39,2.39,0,0,1-.61-.44,2.08,2.08,0,0,1-.36-.65,2.61,2.61,0,0,1-.12-.76,2.3,2.3,0,0,1,.12-.77,2.34,2.34,0,0,1,.36-.68,1.13,1.13,0,0,1,.61-.44,1.88,1.88,0,0,1,.8-.16,2.89,2.89,0,0,1,.58.08.77.77,0,0,1,.48.25,1.24,1.24,0,0,1,.36.4,4.07,4.07,0,0,1,.21.57v.12H54v-.08a1.42,1.42,0,0,0-.16-.36.55.55,0,0,0-.25-.25.79.79,0,0,0-.32-.15,1.14,1.14,0,0,0-.36,0,1.64,1.64,0,0,0-.62.11.85.85,0,0,0-.4.37,1.31,1.31,0,0,0-.24.47,3.22,3.22,0,0,0-.08.58,2.45,2.45,0,0,0,.08.57.76.76,0,0,0,.24.48,2,2,0,0,0,.4.36,1.4,1.4,0,0,0,.62.12,1.5,1.5,0,0,0,.44-.08.63.63,0,0,0,.32-.25,2.69,2.69,0,0,0,.25-.36,4,4,0,0,0,.11-.44v-.08h.58v.12a2.81,2.81,0,0,1-.16.65,1.56,1.56,0,0,1-.36.53,1.44,1.44,0,0,1-.53.33C53.39,22.89,53.18,22.92,52.93,22.92Zm0-4a1.45,1.45,0,0,0-.72.15,2.8,2.8,0,0,0-.54.4,1.9,1.9,0,0,0-.32.62,2.22,2.22,0,0,0-.12.72,2.33,2.33,0,0,0,.12.73,1.37,1.37,0,0,0,.32.61,1.39,1.39,0,0,0,.54.4,2,2,0,0,0,.72.15,3.29,3.29,0,0,0,.58-.07,1.6,1.6,0,0,0,.44-.29,1.78,1.78,0,0,0,.32-.44,1.67,1.67,0,0,0,.15-.48h-.15c0,.16-.07.29-.11.4a1.33,1.33,0,0,1-.29.41,1.8,1.8,0,0,1-.4.28,1.13,1.13,0,0,1-.54.12,1.25,1.25,0,0,1-.68-.16,1.29,1.29,0,0,1-.48-.4,2.18,2.18,0,0,1-.29-.57,3.24,3.24,0,0,1-.07-.65,3.59,3.59,0,0,1,.07-.65,1.4,1.4,0,0,1,.29-.57,1.1,1.1,0,0,1,.48-.4,1.34,1.34,0,0,1,.68-.16,1.63,1.63,0,0,1,.44.08,1.16,1.16,0,0,1,.37.21,1.22,1.22,0,0,1,.28.32,1,1,0,0,1,.16.37h.15a1.25,1.25,0,0,0-.15-.37,3.49,3.49,0,0,0-.33-.36,2.25,2.25,0,0,0-.44-.21A.62.62,0,0,0,52.93,19Z"/><path class="cls-1" d="M60.23,19h.36v1.66h2.28V19h.36v3.82h-.36V20.9H60.59v1.87h-.36Z"/><path class="cls-1" d="M63.36,22.85h-.57V21H60.73v1.87h-.57v-4h.57V20.5h2.06V18.84h.57ZM63,22.66h.15V19.05H63v1.66H60.52V19.05h-.15v3.61h.15V20.78H63Z"/><path class="cls-1" d="M79.11,22.77h-.25l0-.69h0a4,4,0,0,1-.25.37c-.08.07-.21.15-.32.24a.55.55,0,0,1-.37.12,1.33,1.33,0,0,1-.4,0,1.5,1.5,0,0,1-.76-.16,1.66,1.66,0,0,1-.58-.43,2.46,2.46,0,0,1-.32-.65,2.31,2.31,0,0,1-.11-.73,2.08,2.08,0,0,1,.11-.73,4.36,4.36,0,0,1,.32-.65,1.42,1.42,0,0,1,.58-.44,1.78,1.78,0,0,1,.76-.15,2.45,2.45,0,0,1,.57.08,1.06,1.06,0,0,1,.48.25,3.64,3.64,0,0,1,.37.4,3.44,3.44,0,0,1,.21.53h-.37a.59.59,0,0,0-.11-.32,3.59,3.59,0,0,0-.25-.33,2.6,2.6,0,0,1-.36-.25,2.78,2.78,0,0,0-.48-.07,1.2,1.2,0,0,0-.65.15,2.23,2.23,0,0,0-.44.36,1.41,1.41,0,0,0-.25.54,2.69,2.69,0,0,0,0,1.22,1.27,1.27,0,0,0,.25.54,1.32,1.32,0,0,0,.44.36,1.51,1.51,0,0,0,1.22,0,.78.78,0,0,0,.4-.29,1,1,0,0,0,.25-.44,2.3,2.3,0,0,0,.08-.57h-1.3v-.33h1.62l0,2Z"/><path class="cls-1" d="M77.48,22.92a1.57,1.57,0,0,1-.8-.15,2.39,2.39,0,0,1-.61-.44,2.08,2.08,0,0,1-.36-.65,2.61,2.61,0,0,1-.12-.76,2.3,2.3,0,0,1,.12-.77,2.34,2.34,0,0,1,.36-.68,1.13,1.13,0,0,1,.61-.44,1.85,1.85,0,0,1,.8-.16,3.19,3.19,0,0,1,.61.08,1.67,1.67,0,0,1,.54.25,1,1,0,0,1,.36.44,3.11,3.11,0,0,1,.21.57l0,.12h-.57v-.08a.79.79,0,0,0-.08-.29.48.48,0,0,0-.25-.28.88.88,0,0,0-.36-.21,1.5,1.5,0,0,0-.44-.08,1.55,1.55,0,0,0-.61.11.85.85,0,0,0-.4.37,1.35,1.35,0,0,0-.25.47,3.34,3.34,0,0,0-.08.58,2.45,2.45,0,0,0,.08.57.77.77,0,0,0,.25.48,1.54,1.54,0,0,0,.4.36,1.32,1.32,0,0,0,.61.12,2.11,2.11,0,0,0,.53-.08.78.78,0,0,0,.37-.29.94.94,0,0,0,.25-.4,1.76,1.76,0,0,0,.07-.44h-1.3v-.48H79.3v2.16h-.44l0-.47s-.08.07-.08.11a.64.64,0,0,1-.32.25A1.28,1.28,0,0,1,78,23,3,3,0,0,0,77.48,22.92Zm0-4a1.45,1.45,0,0,0-.72.15,2.3,2.3,0,0,0-.54.4,2.12,2.12,0,0,0-.32.62,2.22,2.22,0,0,0-.12.72,2.33,2.33,0,0,0,.12.73,1.28,1.28,0,0,0,.32.61,1.39,1.39,0,0,0,.54.4,2,2,0,0,0,.72.15,1.08,1.08,0,0,0,.36,0,1.82,1.82,0,0,0,.33-.11.66.66,0,0,0,.29-.21,2.66,2.66,0,0,0,.21-.33l0,0h.16v.07l0,.61H79V21H77.6v.11h1.3v.08a3.19,3.19,0,0,1-.08.61,1.09,1.09,0,0,1-.29.48,2.36,2.36,0,0,1-.44.32,1.32,1.32,0,0,1-.61.12,1.28,1.28,0,0,1-.69-.16,1.35,1.35,0,0,1-.47-.4,2.18,2.18,0,0,1-.29-.57A3.21,3.21,0,0,1,76,20.9a3.61,3.61,0,0,1,.08-.65,1.29,1.29,0,0,1,.29-.57,1.17,1.17,0,0,1,.47-.41,1.45,1.45,0,0,1,.69-.15,2.27,2.27,0,0,1,.54.08,1.8,1.8,0,0,1,.4.25,1.4,1.4,0,0,1,.28.32c0,.08.08.21.12.29H79a1.19,1.19,0,0,0-.15-.4,1,1,0,0,0-.33-.37c-.11-.07-.28-.15-.44-.24A2.14,2.14,0,0,0,77.48,19Z"/><path class="cls-1" d="M85,19h1.74a1.53,1.53,0,0,1,.44,0,1.38,1.38,0,0,1,.36.15.73.73,0,0,1,.25.33.87.87,0,0,1,.07.44,1.09,1.09,0,0,1-.21.64.86.86,0,0,1-.57.33h0a.8.8,0,0,1,.33.08.52.52,0,0,1,.21.21l.11.24a.88.88,0,0,1,0,.33V22a.64.64,0,0,0,0,.28c0,.08,0,.21,0,.29a1,1,0,0,0,.07.21h-.4a.14.14,0,0,1,0-.11s0-.12,0-.16v-.26a1.89,1.89,0,0,0,0-.41.67.67,0,0,0-.12-.36.37.37,0,0,0-.25-.25c-.07-.07-.25-.07-.4-.07H85.26v1.66h-.37V19H85Zm.36,1.8h1.34a.88.88,0,0,0,.32,0c.08,0,.21-.08.25-.16a.43.43,0,0,0,.16-.24,1,1,0,0,0,.07-.33.8.8,0,0,0-.21-.57.82.82,0,0,0-.61-.21H85.33v1.55Z"/><path class="cls-1" d="M88.24,22.85h-.69l0,0s0-.08-.08-.15,0-.12,0-.16v-.26a1.43,1.43,0,0,0,0-.41.79.79,0,0,0-.08-.32.53.53,0,0,0-.21-.21.75.75,0,0,0-.32-.08h-1.3v1.7h-.54v-4h1.87a1.93,1.93,0,0,1,.48.08.9.9,0,0,1,.4.21,1,1,0,0,1,.29.36,1,1,0,0,1,.11.48,1.22,1.22,0,0,1-.21.69,1.08,1.08,0,0,1-.32.28,0,0,0,0,1,0,0,1.84,1.84,0,0,1,.25.21c0,.08.07.21.11.29a.88.88,0,0,1,0,.32v.25a.89.89,0,0,0,0,.29c0,.07,0,.15,0,.25a.2.2,0,0,0,.07.15Zm-.58-.19h.16s0,0,0-.08a.73.73,0,0,1,0-.29.68.68,0,0,0,0-.28v-.25c0-.12,0-.21,0-.29s0-.15-.07-.25a.33.33,0,0,0-.16-.15.52.52,0,0,0-.28-.08h0a.14.14,0,0,1,.08,0,.52.52,0,0,1,.24.29c0,.11.08.25.12.4s0,.29,0,.4v.27a.26.26,0,0,0,0,.15A.3.3,0,0,1,87.66,22.66Zm-2.56,0h.16V21h1.45A1,1,0,0,1,87,21v-.17l.08,0a.81.81,0,0,0,.48-.28,1,1,0,0,0,.15-.58,1.24,1.24,0,0,0-.08-.4.53.53,0,0,0-.21-.28,1,1,0,0,0-.32-.16,1.84,1.84,0,0,0-.4,0H85.07l0,3.61Zm1.59-1.8H85.24v-1.7h1.45a.91.91,0,0,1,.69.25.85.85,0,0,1,.25.61,1.17,1.17,0,0,1-.08.36.68.68,0,0,1-.21.29,1,1,0,0,1-.29.15C86.94,20.82,86.82,20.86,86.69,20.86Zm-1.2-.21h1.26a.68.68,0,0,0,.28,0l.25-.11a.33.33,0,0,0,.15-.21.62.62,0,0,0,0-.29.66.66,0,0,0-.15-.48.74.74,0,0,0-.54-.15H85.52v1.3h0Z"/><path class="cls-1" d="M93.51,20.86a2.38,2.38,0,0,1,.11-.73,3.51,3.51,0,0,1,.33-.64,1.19,1.19,0,0,1,.57-.44,1.66,1.66,0,0,1,.77-.16,1.5,1.5,0,0,1,.76.16,1.46,1.46,0,0,1,.57.44,2.05,2.05,0,0,1,.33.64,2.64,2.64,0,0,1,.11.73,2.33,2.33,0,0,1-.11.73,3.61,3.61,0,0,1-.33.65,1.33,1.33,0,0,1-.57.44,1.78,1.78,0,0,1-.76.15,1.63,1.63,0,0,1-.77-.15,1.68,1.68,0,0,1-.57-.44,2.34,2.34,0,0,1-.33-.65A2.53,2.53,0,0,1,93.51,20.86Zm.36,0a3.19,3.19,0,0,0,.08.61,1.16,1.16,0,0,0,.25.54,1.27,1.27,0,0,0,.44.36,1.48,1.48,0,0,0,.65.15,1.32,1.32,0,0,0,.65-.15,2.16,2.16,0,0,0,.43-.36,1.28,1.28,0,0,0,.25-.54,3.19,3.19,0,0,0,.08-.61,3.19,3.19,0,0,0-.08-.61,1.16,1.16,0,0,0-.25-.54,1.34,1.34,0,0,0-.43-.36,1.56,1.56,0,0,0-.65-.15,1.2,1.2,0,0,0-.65.15,2,2,0,0,0-.44.36,1.28,1.28,0,0,0-.25.54A3.19,3.19,0,0,0,93.87,20.86Z"/><path class="cls-1" d="M95.34,22.92a1.57,1.57,0,0,1-.8-.15,2.39,2.39,0,0,1-.61-.44,2.08,2.08,0,0,1-.36-.65,2.61,2.61,0,0,1-.12-.76,2.3,2.3,0,0,1,.12-.77,2.34,2.34,0,0,1,.36-.68,1.13,1.13,0,0,1,.61-.44,1.88,1.88,0,0,1,.8-.16,1.6,1.6,0,0,1,.81.16,2.51,2.51,0,0,1,.61.44,2.1,2.1,0,0,1,.36.68,2.65,2.65,0,0,1,.11.77,2.29,2.29,0,0,1-.11.76,1.86,1.86,0,0,1-.36.65,1.27,1.27,0,0,1-.61.44A1.73,1.73,0,0,1,95.34,22.92Zm0-4a1.45,1.45,0,0,0-.72.15,2.3,2.3,0,0,0-.54.4,1.73,1.73,0,0,0-.32.62,2.22,2.22,0,0,0-.12.72,2.33,2.33,0,0,0,.12.73,1.28,1.28,0,0,0,.32.61,1.39,1.39,0,0,0,.54.4,2,2,0,0,0,.72.15,1.46,1.46,0,0,0,.73-.15,2.17,2.17,0,0,0,.53-.4,1.94,1.94,0,0,0,.33-.61,2.31,2.31,0,0,0,.11-.73,2.21,2.21,0,0,0-.11-.72,1.38,1.38,0,0,0-.33-.62,1.29,1.29,0,0,0-.53-.4A2.19,2.19,0,0,0,95.34,19Zm0,3.71a1.25,1.25,0,0,1-.68-.16,1.29,1.29,0,0,1-.48-.4,2.18,2.18,0,0,1-.29-.57,3.21,3.21,0,0,1-.08-.65,3.61,3.61,0,0,1,.08-.65,1.29,1.29,0,0,1,.29-.57,1.05,1.05,0,0,1,.48-.4,1.31,1.31,0,0,1,.68-.16,1.26,1.26,0,0,1,.69.16,1.37,1.37,0,0,1,.48.4,2.16,2.16,0,0,1,.28.57,3.21,3.21,0,0,1,.08.65,3.61,3.61,0,0,1-.08.65,1.27,1.27,0,0,1-.28.57,1.16,1.16,0,0,1-.48.4A2.67,2.67,0,0,1,95.34,22.66Zm0-3.39a1.38,1.38,0,0,0-.61.12,1,1,0,0,0-.4.36,1.7,1.7,0,0,0-.25.48,3.15,3.15,0,0,0-.07.57,2.63,2.63,0,0,0,.07.58.77.77,0,0,0,.25.47,2,2,0,0,0,.4.37,1.48,1.48,0,0,0,.61.11,1.55,1.55,0,0,0,.61-.11.83.83,0,0,0,.41-.37,1.31,1.31,0,0,0,.24-.47,3.22,3.22,0,0,0,.08-.58,2.45,2.45,0,0,0-.08-.57.76.76,0,0,0-.24-.48,1.77,1.77,0,0,0-.41-.36A1.74,1.74,0,0,0,95.34,19.27Z"/><path class="cls-1" d="M102.85,19h.36V21.3a2.45,2.45,0,0,0,.08.57.67.67,0,0,0,.21.37,1.31,1.31,0,0,0,.36.21,2,2,0,0,0,.48.07,2.65,2.65,0,0,0,.48-.07,1.35,1.35,0,0,0,.36-.21,1.63,1.63,0,0,0,.21-.37,2,2,0,0,0,.08-.57V19h.36V21.4a2.8,2.8,0,0,1-.08.57,1.26,1.26,0,0,1-.24.44,2,2,0,0,1-.44.32,1.78,1.78,0,0,1-.69.12,1.92,1.92,0,0,1-.69-.12,1.17,1.17,0,0,1-.44-.32A1.14,1.14,0,0,1,103,22a3,3,0,0,1-.07-.57V19h-.08Z"/><path class="cls-1" d="M104.3,22.92a1.91,1.91,0,0,1-.72-.11,1.27,1.27,0,0,1-.48-.33,1.16,1.16,0,0,1-.29-.47,2.87,2.87,0,0,1-.07-.58V18.87h.57v2.49a1.85,1.85,0,0,0,.08.53.58.58,0,0,0,.21.33,1.61,1.61,0,0,0,.32.21,2,2,0,0,0,.9,0,.78.78,0,0,0,.32-.21,1.1,1.1,0,0,0,.21-.33,2,2,0,0,0,.08-.53V18.87H106v2.56a3.41,3.41,0,0,1-.07.58.81.81,0,0,1-.29.47,1,1,0,0,1-.48.33A3.33,3.33,0,0,1,104.3,22.92ZM102.93,19V21.4a2.72,2.72,0,0,0,.07.53.78.78,0,0,0,.25.4,1.64,1.64,0,0,0,.4.29,1.73,1.73,0,0,0,.65.11,1.76,1.76,0,0,0,.65-.11c.15-.08.33-.15.4-.29a.85.85,0,0,0,.25-.4,2,2,0,0,0,.08-.53V19.05h-.15v2.27a2.51,2.51,0,0,1-.08.61.6.6,0,0,1-.25.4,1.67,1.67,0,0,1-.4.25,2.16,2.16,0,0,1-1,0,.69.69,0,0,1-.4-.25.85.85,0,0,1-.25-.4,2.37,2.37,0,0,1-.08-.61V19.05h-.13Z"/><path class="cls-1" d="M111.7,19h1.7a1.37,1.37,0,0,1,.43.08,1,1,0,0,1,.37.21c.07.07.15.21.25.32a1.93,1.93,0,0,1,.07.44,1.84,1.84,0,0,1-.07.44.59.59,0,0,1-.25.32,1.06,1.06,0,0,1-.37.22,1.76,1.76,0,0,1-.43.07h-1.34v1.63h-.36Zm.36,1.87h1.26a.9.9,0,0,0,.61-.21.77.77,0,0,0,0-1.14.9.9,0,0,0-.61-.21h-1.26Z"/><path class="cls-1" d="M112.17,22.85h-.57v-4h1.78a1.66,1.66,0,0,1,.47.07.81.81,0,0,1,.41.25.94.94,0,0,1,.24.36,2.09,2.09,0,0,1,.08.48,1.44,1.44,0,0,1-.08.48.72.72,0,0,1-.24.36.88.88,0,0,1-.41.25,1.93,1.93,0,0,1-.47.08h-1.23v1.68Zm-.36-.19H112V21h1.42a2.36,2.36,0,0,0,.44-.07.85.85,0,0,0,.32-.21,1.33,1.33,0,0,0,.21-.33,1.42,1.42,0,0,0,.08-.4,1.18,1.18,0,0,0-.08-.4.72.72,0,0,0-.21-.33,2,2,0,0,0-.32-.21,1.93,1.93,0,0,0-.44-.07h-1.59v3.65Zm1.51-1.76H112V19.16h1.34a1.2,1.2,0,0,1,.69.21.9.9,0,0,1,.28.65.69.69,0,0,1-.28.65A.88.88,0,0,1,113.32,20.9Zm-1.15-.19h1.13a.87.87,0,0,0,.57-.16.69.69,0,0,0,.21-.53.65.65,0,0,0-.21-.53.72.72,0,0,0-.57-.16h-1.13Z"/><path class="cls-1" d="M51.88,9.38a4.61,4.61,0,0,1,1.19-1.7A2.47,2.47,0,0,1,54.77,7a4.86,4.86,0,0,1,2.48.9,4.62,4.62,0,0,0,2.2.9,1.8,1.8,0,0,0,1.22-.4,4,4,0,0,0,1-1.23l.68.44a5.55,5.55,0,0,1-1.18,1.55,2.61,2.61,0,0,1-1.95.76A4.72,4.72,0,0,1,56.68,9a4.48,4.48,0,0,0-2.2-.9,1.57,1.57,0,0,0-1.09.4,3.61,3.61,0,0,0-.86,1.18Z"/></g></g></svg>