<svg xmlns="http://www.w3.org/2000/svg" viewBox="0 0 201.26 40.4"><defs><style>.cls-1{fill:#2676b7;}</style></defs><g id="Layer_2" data-name="Layer 2"><g id="layer"><path class="cls-1" d="M11.61,25.47H.13V24.16c.37,0,.78-.07,1.41-.13a7.39,7.39,0,0,0,1.28-.21,1.36,1.36,0,0,0,.84-.63,1.87,1.87,0,0,0,.27-1.14V3.72a2.46,2.46,0,0,0-.21-1.07A1.63,1.63,0,0,0,2.79,2c-.37-.14-.78-.27-1.35-.44A6.36,6.36,0,0,0,.1,1.31V0H11.58V1.28a12,12,0,0,0-1.35.13,7,7,0,0,0-1.34.27,1.51,1.51,0,0,0-.94.7,3.17,3.17,0,0,0-.2,1.08V21.84A2,2,0,0,0,8,22.92a1.69,1.69,0,0,0,.84.7,7.61,7.61,0,0,0,1.21.27,14.19,14.19,0,0,0,1.41.2l.13,1.38Z"/><path class="cls-1" d="M39.26,5.77A6.6,6.6,0,0,0,38,6a3.4,3.4,0,0,0-1.2.44c-.37.2-.57.7-.71,1.41a14.83,14.83,0,0,0-.2,2.65V25.64H34.56l-12.48-17v10.7a15,15,0,0,0,.2,2.79A2.18,2.18,0,0,0,23,23.52a2.92,2.92,0,0,0,1.34.57,5.88,5.88,0,0,0,1.34.27v1.07H17.31V24.36a9.33,9.33,0,0,0,1.35-.27,4.22,4.22,0,0,0,1.14-.43,2.06,2.06,0,0,0,.7-1.28,13.54,13.54,0,0,0,.2-2.85V9.33A4.26,4.26,0,0,0,20.5,8a2.77,2.77,0,0,0-.64-1.08,4.61,4.61,0,0,0-1.4-.84,5.35,5.35,0,0,0-1.41-.37V4.63H23L34.56,20.37v-9.7a14.8,14.8,0,0,0-.2-2.78,2.12,2.12,0,0,0-.64-1.28A4.76,4.76,0,0,0,32.38,6,9.39,9.39,0,0,0,31,5.77V4.7h8.42l-.13,1.07Z"/><path class="cls-1" d="M82.51,7.21a10,10,0,0,1,2.15,3.43,12.81,12.81,0,0,1,.77,4.49,13,13,0,0,1-.77,4.5,9.55,9.55,0,0,1-2.22,3.42,9.38,9.38,0,0,1-3.12,2.15,9.92,9.92,0,0,1-3.86.77,10.54,10.54,0,0,1-4-.77,8.91,8.91,0,0,1-3.12-2.28,10.8,10.8,0,0,1-2.08-3.42,12.42,12.42,0,0,1-.77-4.37,12.26,12.26,0,0,1,.77-4.49,10.68,10.68,0,0,1,2.15-3.43A9.65,9.65,0,0,1,71.64,5a10,10,0,0,1,3.79-.77A10.11,10.11,0,0,1,79.29,5,9.27,9.27,0,0,1,82.51,7.21ZM80.36,21.88a8.94,8.94,0,0,0,1.21-3,21.16,21.16,0,0,0,.37-3.79,15.83,15.83,0,0,0-.44-3.93,10.12,10.12,0,0,0-1.2-3.05A5.49,5.49,0,0,0,75.53,5.5a5.72,5.72,0,0,0-3,.77,6.79,6.79,0,0,0-2,2.15,11,11,0,0,0-1.08,3A20.83,20.83,0,0,0,69.12,15a19,19,0,0,0,.37,3.79,8.85,8.85,0,0,0,1.21,3,5.86,5.86,0,0,0,2,2,5.25,5.25,0,0,0,2.85.7,5.11,5.11,0,0,0,2.79-.7A4.32,4.32,0,0,0,80.36,21.88Z"/><path class="cls-1" d="M151.06,19.39a11.91,11.91,0,0,1-.94,2.09,10.27,10.27,0,0,1-1.41,2.14,2.84,2.84,0,0,1-.83.44l-1.15.2a7.34,7.34,0,0,1-1.34.07h-1.27a13.63,13.63,0,0,1-1.85-.07,2.14,2.14,0,0,1-1.07-.37,1.15,1.15,0,0,1-.5-.77,7.73,7.73,0,0,1-.14-1.51V15.4h2.35a8,8,0,0,1,1.51.14,2.47,2.47,0,0,1,1,.7,2.77,2.77,0,0,1,.5,1.14,6.15,6.15,0,0,1,.27,1.51h1.07V10.77H146.2a13.25,13.25,0,0,1-.27,1.34,3.46,3.46,0,0,1-.57,1.14,1.94,1.94,0,0,1-.94.71,5.31,5.31,0,0,1-1.64.2h-2.19V5.91h5.74a4.25,4.25,0,0,1,3.36,1.84c.27.44,1.07,1.85,1.07,1.85h1.14l-.37-4.94h-17V5.74a7.62,7.62,0,0,1,1.07.13,3.12,3.12,0,0,1,1.08.37,1,1,0,0,1,.64.64,1.62,1.62,0,0,1,.13.84v14.9a1.47,1.47,0,0,1-.2.83,1.81,1.81,0,0,1-.64.58,4.08,4.08,0,0,1-.94.2c-.5.06-.84.06-1.14.13v1.07H151.7l.44-6.14C152.14,19.39,151.06,19.39,151.06,19.39Z"/><path class="cls-1" d="M166.47,25.94a8.64,8.64,0,0,1-3.56-.71,9.24,9.24,0,0,1-3-2.08,10.14,10.14,0,0,1-2.08-3.35,12.75,12.75,0,0,1-.77-4.5,13,13,0,0,1,.77-4.5,11.39,11.39,0,0,1,2.08-3.49A8.17,8.17,0,0,1,163,5.1a10,10,0,0,1,3.86-.77,10.39,10.39,0,0,1,2.79.37A11.18,11.18,0,0,1,172,5.77l.57-1h1.14l.13,7.42h-1.21a13.19,13.19,0,0,0-.7-2.35,7.1,7.1,0,0,0-1.08-2.15,6.09,6.09,0,0,0-1.64-1.57A4.25,4.25,0,0,0,167,5.54a5.64,5.64,0,0,0-2.66.63A7.87,7.87,0,0,0,162.24,8a9,9,0,0,0-1.34,3,18.22,18.22,0,0,0-.51,4.06,11.08,11.08,0,0,0,.51,3.62,10.25,10.25,0,0,0,1.4,2.92,6,6,0,0,0,2.22,1.91,5.32,5.32,0,0,0,2.85.71,6.42,6.42,0,0,0,2.15-.37,6.08,6.08,0,0,0,1.71-1,8.74,8.74,0,0,0,1.28-1.41,15.72,15.72,0,0,0,.93-1.78l1.08.51a9,9,0,0,1-3.36,4.43A7.28,7.28,0,0,1,166.47,25.94Z"/><path class="cls-1" d="M201.16,25.47h-8.62V24.39c.2,0,.57-.06,1-.06a9.48,9.48,0,0,0,.94-.14,1.36,1.36,0,0,0,.64-.5,1.8,1.8,0,0,0,.2-.94V15.33h-9.76v7.22a2.5,2.5,0,0,0,.13.84,3.21,3.21,0,0,0,.64.64c.13.06.44.13.84.26a7.85,7.85,0,0,0,1,.14V25.5h-8.63V24.43c.2,0,.57-.07,1-.07s.7-.07.94-.13a1.43,1.43,0,0,0,.64-.51,1.9,1.9,0,0,0,.2-.94v-15a2,2,0,0,0-.2-.84,2,2,0,0,0-.64-.64c-.27-.13-.57-.2-.94-.37a6.82,6.82,0,0,0-1-.13V4.76h8.76v1a7.41,7.41,0,0,0-1,.14,3.06,3.06,0,0,0-.84.2c-.37.13-.57.27-.63.57a1.78,1.78,0,0,0-.14.84v6.41h9.77V7.72a2,2,0,0,0-.2-.84,2,2,0,0,0-.64-.64c-.27-.13-.57-.2-.94-.37a5.71,5.71,0,0,0-1-.13V4.66h8.49V5.8a7.41,7.41,0,0,0-1,.14,3.25,3.25,0,0,0-.83.2c-.37.13-.58.27-.64.57a1.78,1.78,0,0,0-.14.84v14.9a2.46,2.46,0,0,0,.14.84,2.74,2.74,0,0,0,.64.63c.13.07.43.14.83.27a8.35,8.35,0,0,0,1,.14v1.14Z"/><path class="cls-1" d="M61.27,4.8h-17v1a7.88,7.88,0,0,1,1.07.14,3.19,3.19,0,0,1,1.08.37A.9.9,0,0,1,47,7a1.5,1.5,0,0,1,.14.83v15a2.2,2.2,0,0,1-.2.94,1.79,1.79,0,0,1-.64.57,2.37,2.37,0,0,1-.94.13,7.42,7.42,0,0,1-1.14.07v1.08h9V24.46c-.27,0-.64-.07-1.14-.13s-.77-.2-.94-.2a1.21,1.21,0,0,1-.64-.64,2,2,0,0,1-.2-.84V15.54h2.35a5.15,5.15,0,0,1,1.58.2,2.33,2.33,0,0,1,1.07.7,3.68,3.68,0,0,1,.57,1.21,6.46,6.46,0,0,1,.27,1.41h1.14V10.87H56.17a7.68,7.68,0,0,1-.27,1.41,4.72,4.72,0,0,1-.5,1,3,3,0,0,1-1,.7,5.46,5.46,0,0,1-1.71.2H50.33V5.94H56.1a4.07,4.07,0,0,1,3.29,1.84l1.08,1.78h1.14Z"/><path class="cls-1" d="M129.76,0H108.38L108,5.77h1.34s.94-1.64,1.28-2.15a5.41,5.41,0,0,1,3.93-2.21h2.71v20.3a2.43,2.43,0,0,1-.2,1.07,1.48,1.48,0,0,1-.84.78c-.2.06-.63.2-1.34.36a8.67,8.67,0,0,1-1.58.21V25.4h12V24.16a8.75,8.75,0,0,1-1.58-.2,6.35,6.35,0,0,1-1.34-.37,1.53,1.53,0,0,1-.84-.77,3.12,3.12,0,0,1-.27-1.08V1.44h2.72A5,5,0,0,1,128,3.66c.37.5,1.27,2.14,1.27,2.14h1.35Z"/><path class="cls-1" d="M.13,33.29H3.19a3,3,0,0,1,.77.06,2.92,2.92,0,0,1,.64.27,1.18,1.18,0,0,1,.43.57,1.4,1.4,0,0,1,.14.77A2,2,0,0,1,4.8,36.1a1.59,1.59,0,0,1-1,.58h0a1.37,1.37,0,0,1,.57.13.94.94,0,0,1,.37.37,3.45,3.45,0,0,1,.2.43,1.54,1.54,0,0,1,.07.58v.43a1.15,1.15,0,0,0,.07.5c0,.14.06.37.06.51s.07.27.14.37H4.56a.27.27,0,0,1-.06-.2c0-.07-.07-.21-.07-.27v-.47a2.45,2.45,0,0,0-.07-.71,1.11,1.11,0,0,0-.2-.63.63.63,0,0,0-.44-.44c-.13-.13-.43-.13-.7-.13H.6v2.91H0V33.35H.13Zm.64,3.15H3.12a1.6,1.6,0,0,0,.57-.07c.14-.06.37-.13.44-.27a.84.84,0,0,0,.27-.43,1.59,1.59,0,0,0,.13-.57,1.46,1.46,0,0,0-.37-1,1.51,1.51,0,0,0-1.07-.37H.74v2.72Z"/><path class="cls-1" d="M5.84,40.13H4.63l-.07-.07c-.06-.06-.06-.13-.06-.26s-.07-.21-.07-.27v-.47a2.45,2.45,0,0,0-.07-.71,1.41,1.41,0,0,0-.13-.57,1,1,0,0,0-.37-.37,1.59,1.59,0,0,0-.57-.13H1v3H0V33.22H3.29a4.07,4.07,0,0,1,.84.13,1.75,1.75,0,0,1,.7.37,1.93,1.93,0,0,1,.71,1.48,2.26,2.26,0,0,1-.37,1.21,2.1,2.1,0,0,1-.57.5.06.06,0,0,1,.06.07,1.69,1.69,0,0,1,.44.37,1.5,1.5,0,0,1,.2.5,1.6,1.6,0,0,1,.07.57v.44a1.44,1.44,0,0,0,.07.5c0,.13.06.27.06.44a.32.32,0,0,0,.14.26Zm-1-.33H5.1c0-.07,0-.07-.07-.14a1.43,1.43,0,0,1-.06-.5,1.21,1.21,0,0,0-.07-.5v-.44c0-.2-.07-.37-.07-.5a1.43,1.43,0,0,0-.13-.44A.59.59,0,0,0,4.43,37a1,1,0,0,0-.5-.13H3.86a.21.21,0,0,1,.13.06,1,1,0,0,1,.44.51c.07.2.13.43.2.7s.07.51.07.71v.47a.54.54,0,0,0,.06.26A.43.43,0,0,1,4.83,39.8Zm-4.49,0H.6v-3H3.15a1.39,1.39,0,0,1,.57.07v-.31l.14-.06A1.42,1.42,0,0,0,4.7,36,1.65,1.65,0,0,0,5,35a2.13,2.13,0,0,0-.14-.71,1.08,1.08,0,0,0-.37-.5,1.59,1.59,0,0,0-.57-.27,2.38,2.38,0,0,0-.7-.07H.34Zm2.78-3.16H.57v-3H3.12a1.59,1.59,0,0,1,1.21.43,1.49,1.49,0,0,1,.43,1.08,2,2,0,0,1-.13.63,1.16,1.16,0,0,1-.37.51,2.41,2.41,0,0,1-.5.26C3.56,36.57,3.32,36.64,3.12,36.64ZM1,36.27H3.19a1.43,1.43,0,0,0,.5-.06c.14-.07.27-.14.44-.21a.64.64,0,0,0,.27-.36,1.22,1.22,0,0,0,.06-.51,1.07,1.07,0,0,0-.27-.84A1.26,1.26,0,0,0,3.25,34H1L1,36.27Z"/><path class="cls-1" d="M15.44,33.29h4.63v.57h-4v2.41H19.8v.57H16.11v2.65h4.06V40H15.44Z"/><path class="cls-1" d="M20.3,40.13H15.23V33.08h5V34h-4V36.1h3.69V37H16.24v2.29H20.3Zm-4.63-.33H20v-.21H15.94v-3h3.69v-.13H15.94V33.66h4v-.21H15.67Z"/><path class="cls-1" d="M30.4,37.78a2.78,2.78,0,0,0,.13.84,1.63,1.63,0,0,0,.51.57,2.09,2.09,0,0,0,.7.27,3.41,3.41,0,0,0,.84.07,1.77,1.77,0,0,0,.57-.07,5.22,5.22,0,0,0,.57-.2,1.15,1.15,0,0,0,.44-.44.92.92,0,0,0,.2-.63,1.23,1.23,0,0,0-.13-.51,1.09,1.09,0,0,0-.37-.37,2.86,2.86,0,0,0-.44-.2,1.33,1.33,0,0,0-.5-.13l-1.41-.37c-.2-.07-.37-.14-.57-.2a1.38,1.38,0,0,1-.51-.27c-.13-.14-.2-.27-.36-.44a2,2,0,0,1-.14-.64,1.83,1.83,0,0,1,.07-.57,2.07,2.07,0,0,1,.37-.63,1.93,1.93,0,0,1,.7-.51,2.88,2.88,0,0,1,1.14-.2,3.79,3.79,0,0,1,.94.14,1.45,1.45,0,0,1,.77.43,2.48,2.48,0,0,1,.57.64,2,2,0,0,1,.21.94h-.64a1.48,1.48,0,0,0-.14-.64.86.86,0,0,0-.43-.5,1.51,1.51,0,0,0-.57-.27,2.22,2.22,0,0,0-.71-.07,1.94,1.94,0,0,0-.63.07,3.89,3.89,0,0,0-.51.2.84.84,0,0,0-.37.44,1.62,1.62,0,0,0-.13.64,1,1,0,0,0,.07.43.56.56,0,0,0,.2.27,1.1,1.1,0,0,0,.37.2c.13.07.26.07.37.14l1.64.43.64.2a1.34,1.34,0,0,1,.57.37,1.6,1.6,0,0,1,.37.51,2.36,2.36,0,0,1,.13.7v.27a1.38,1.38,0,0,1-.13.43,1.74,1.74,0,0,1-.27.44l-.44.44a2.32,2.32,0,0,1-.7.27,4.77,4.77,0,0,1-1,.13,5,5,0,0,1-1.07-.13,1.4,1.4,0,0,1-.84-.44,2.83,2.83,0,0,1-.57-.71,1.77,1.77,0,0,1-.14-1.07h.64v-.27Z"/><path class="cls-1" d="M32.48,40.27a5.64,5.64,0,0,1-1.14-.14,3.23,3.23,0,0,1-.94-.43,2.12,2.12,0,0,1-.57-.78,2,2,0,0,1-.13-1.14v-.13h1v.2a2.52,2.52,0,0,0,.14.77.86.86,0,0,0,.43.5,1.31,1.31,0,0,0,.64.27,2.85,2.85,0,0,0,1.34,0,3.19,3.19,0,0,0,.51-.2,1.08,1.08,0,0,0,.37-.37.8.8,0,0,0,.13-.5,1.06,1.06,0,0,0-.07-.44.51.51,0,0,0-.27-.27l-.43-.2c-.14-.06-.27-.06-.44-.13l-1.51-.37c-.2-.07-.43-.13-.57-.2a1.08,1.08,0,0,1-.5-.37,1.91,1.91,0,0,1-.37-.5,2.13,2.13,0,0,1-.14-.71,2.22,2.22,0,0,1,.07-.64,2.38,2.38,0,0,1,.37-.7,2.31,2.31,0,0,1,.77-.57,3.06,3.06,0,0,1,1.21-.2,4.49,4.49,0,0,1,1,.13,2,2,0,0,1,.84.44,3,3,0,0,1,.57.7,2.43,2.43,0,0,1,.2,1v.13H34V35.3a1.54,1.54,0,0,0-.13-.57,1.91,1.91,0,0,0-.37-.44A2.1,2.1,0,0,0,33,34a1.89,1.89,0,0,0-1.2,0,4.42,4.42,0,0,0-.51.21.64.64,0,0,0-.27.36c-.2.07-.2.21-.2.44a.75.75,0,0,0,.07.37c.07.07.07.13.13.2a.36.36,0,0,0,.27.14c.14.06.2.06.37.13l1.65.44c.2.06.5.13.7.2a1.21,1.21,0,0,1,.57.37c.14.13.27.37.44.57a2.87,2.87,0,0,1,.13.77v.37A1.38,1.38,0,0,1,35,39l-.27.51a4,4,0,0,1-.5.43,1.93,1.93,0,0,1-.78.27A6.1,6.1,0,0,1,32.48,40.27ZM30,37.92a2.87,2.87,0,0,0,.13.77,1.43,1.43,0,0,0,.51.64,5,5,0,0,0,.77.37,5.06,5.06,0,0,0,2,0,1.42,1.42,0,0,0,.63-.27,1.91,1.91,0,0,0,.44-.37,3.09,3.09,0,0,1,.2-.37.65.65,0,0,0,.07-.37v-.27a2.1,2.1,0,0,0-.14-.64,2,2,0,0,0-.36-.43,1,1,0,0,0-.51-.27l-.64-.2-1.64-.44a1.51,1.51,0,0,1-.44-.13l-.36-.2a.62.62,0,0,1-.27-.37,1.13,1.13,0,0,1-.07-.51,2.36,2.36,0,0,1,.13-.7,2.16,2.16,0,0,1,.44-.5,1.31,1.31,0,0,1,.57-.27,4.76,4.76,0,0,1,1.41,0c.2.06.44.2.64.27a1.09,1.09,0,0,1,.43.57,1.33,1.33,0,0,1,.14.57h.27a2,2,0,0,0-.14-.64,1.6,1.6,0,0,0-.5-.57,3.16,3.16,0,0,0-.71-.37,3.55,3.55,0,0,0-.94-.13,2.46,2.46,0,0,0-1.07.2,1.88,1.88,0,0,0-.64.43,1,1,0,0,0-.26.57,1.44,1.44,0,0,0-.07.51,1.59,1.59,0,0,0,.13.57,2.45,2.45,0,0,0,.27.43,1.12,1.12,0,0,0,.44.27,3.71,3.71,0,0,0,.57.2l1.51.37c.13.07.37.07.5.14a1.71,1.71,0,0,1,.5.26.84.84,0,0,1,.37.44,1.37,1.37,0,0,1,.14.57,1.31,1.31,0,0,1-.2.71,1.53,1.53,0,0,1-.51.5,2.85,2.85,0,0,1-.63.27,4,4,0,0,1-1.51,0,1.46,1.46,0,0,1-.78-.37,1.24,1.24,0,0,1-.5-.64,2.53,2.53,0,0,1-.13-.77H30S30,37.92,30,37.92Z"/><path class="cls-1" d="M45.16,33.29H49.8v.57h-4v2.41h3.69v.57H45.8v2.65h4.06V40h-4.7V33.29Z"/><path class="cls-1" d="M50,40.13H45V33.08h5V34H46V36.1h3.69V37H46v2.29h4Zm-4.7-.33h4.36v-.21H45.6v-3h3.69v-.13H45.6V33.66h4v-.21H45.3Z"/><path class="cls-1" d="M61.77,33.29h.71L65.13,40h-.7l-.78-2.08h-3L59.83,40h-.77Zm-1,4.06h2.65l-1.28-3.43Z"/><path class="cls-1" d="M65.33,40.13H64.26l-.77-2.08H60.7l-.77,2.08H58.86l2.85-7.05h.94Zm-.77-.33h.27l-2.49-6.35h-.2l1.58,4.06H60.6l1.58-4.06H62L59.43,39.8h.26l.78-2.08h3.28ZM61,37.15h2.15l-1.07-2.79Z"/><path class="cls-1" d="M74.83,33.29h3a3,3,0,0,1,.77.06,2.92,2.92,0,0,1,.64.27,1.26,1.26,0,0,1,.44.57,1.5,1.5,0,0,1,.13.77,1.94,1.94,0,0,1-.37,1.14,1.59,1.59,0,0,1-1,.58h0a1.42,1.42,0,0,1,.58.13,1,1,0,0,1,.36.37c.07.13.14.27.21.43a1.79,1.79,0,0,1,.06.58v.43a1.15,1.15,0,0,0,.07.5c0,.14.07.37.07.51A2.64,2.64,0,0,0,80,40h-.7a.25.25,0,0,1-.07-.2c0-.07-.07-.21-.07-.27v-.47a2.84,2.84,0,0,0-.06-.71,1.13,1.13,0,0,0-.21-.63.62.62,0,0,0-.43-.44,1.16,1.16,0,0,0-.71-.13H75.3v2.91h-.64V33.35h.17Zm.63,3.15h2.35a1.6,1.6,0,0,0,.57-.07c.14-.06.37-.13.44-.27a.84.84,0,0,0,.27-.43,1.41,1.41,0,0,0,.13-.57,1.46,1.46,0,0,0-.37-1,1.51,1.51,0,0,0-1.07-.37H75.43v2.72Z"/><path class="cls-1" d="M80.43,40.13H79.29l-.07-.07c-.06-.06-.06-.13-.13-.26s-.07-.21-.07-.27v-.47a2.45,2.45,0,0,0-.07-.71,1.41,1.41,0,0,0-.13-.57,1,1,0,0,0-.37-.37,1.54,1.54,0,0,0-.57-.13H75.6v3h-1V33.22h3.29a4.07,4.07,0,0,1,.84.13,1.75,1.75,0,0,1,.7.37,1.93,1.93,0,0,1,.51.64,1.77,1.77,0,0,1,.2.84,2.26,2.26,0,0,1-.37,1.21,2,2,0,0,1-.57.5.07.07,0,0,1,.07.07,1.85,1.85,0,0,1,.43.37,1.5,1.5,0,0,1,.2.5,1.6,1.6,0,0,1,.07.57v.44a1.44,1.44,0,0,0,.07.5c0,.13.07.27.07.44a.32.32,0,0,0,.13.26Zm-.91-.33h.27c0-.07,0-.07-.06-.14a1.24,1.24,0,0,1-.07-.5,1.21,1.21,0,0,0-.07-.5v-.44c0-.2-.07-.37-.07-.5a1.2,1.2,0,0,0-.13-.44.55.55,0,0,0-.27-.27,1,1,0,0,0-.5-.13h-.1a.21.21,0,0,1,.13.06,1,1,0,0,1,.44.51c.07.2.13.43.2.7s.07.51.07.71v.47a.54.54,0,0,0,.06.26C79.46,39.7,79.46,39.8,79.52,39.8ZM75,39.8h.27v-3h2.55a1.42,1.42,0,0,1,.57.07v-.31l.13-.06a1.42,1.42,0,0,0,.84-.51,1.65,1.65,0,0,0,.27-1,2.43,2.43,0,0,0-.13-.71,1.08,1.08,0,0,0-.37-.5,2,2,0,0,0-.57-.27,2.45,2.45,0,0,0-.71-.07H74.89L75,39.8Zm2.85-3.16H75.26v-3h2.55a1.57,1.57,0,0,1,1.21.43,1.5,1.5,0,0,1,.44,1.08,2,2,0,0,1-.14.63,1.09,1.09,0,0,1-.37.51,1.6,1.6,0,0,1-.5.26C78.25,36.57,78,36.64,77.81,36.64Zm-2.21-.37h2.21a1.49,1.49,0,0,0,.51-.06l.43-.21c.14-.06.2-.2.27-.36a1.06,1.06,0,0,0,.07-.51,1.11,1.11,0,0,0-.27-.84,1.26,1.26,0,0,0-.94-.27H75.67v2.29H75.6Z"/><path class="cls-1" d="M95.06,35.3a2.23,2.23,0,0,0-.27-.71,1.49,1.49,0,0,0-.5-.5,2.42,2.42,0,0,0-.64-.27,2.36,2.36,0,0,0-.7-.13,2.05,2.05,0,0,0-1.14.27,3.65,3.65,0,0,0-.78.63,2.19,2.19,0,0,0-.43.94,5.71,5.71,0,0,0-.14,1.08,5.61,5.61,0,0,0,.14,1.07,2,2,0,0,0,.43.94,2.47,2.47,0,0,0,.78.64,2.73,2.73,0,0,0,1.14.27,3.51,3.51,0,0,0,.84-.14,2,2,0,0,0,.63-.43,1.61,1.61,0,0,0,.44-.71,2,2,0,0,0,.2-.84h.64a6,6,0,0,1-.27,1.14,2.26,2.26,0,0,1-.57.84A2.53,2.53,0,0,1,94,40a3.17,3.17,0,0,1-2.42-.06,2.85,2.85,0,0,1-1-.78A3.39,3.39,0,0,1,90,38a4,4,0,0,1-.2-1.27,3.66,3.66,0,0,1,.2-1.28,6.07,6.07,0,0,1,.57-1.14,2.33,2.33,0,0,1,1-.77A3,3,0,0,1,93,33.25a4.76,4.76,0,0,1,.94.14,2,2,0,0,1,.84.43,6.46,6.46,0,0,1,.63.71,2,2,0,0,1,.27.94h-.57V35.3Z"/><path class="cls-1" d="M93,40.27A2.88,2.88,0,0,1,91.57,40a4.46,4.46,0,0,1-1.07-.77,3.72,3.72,0,0,1-.64-1.15,4.89,4.89,0,0,1-.2-1.34,4.29,4.29,0,0,1,.2-1.34,4,4,0,0,1,.64-1.21,2,2,0,0,1,1.07-.77A3.44,3.44,0,0,1,93,33.15a5,5,0,0,1,1,.14,1.36,1.36,0,0,1,.84.43,2.12,2.12,0,0,1,.63.71,5.24,5.24,0,0,1,.37,1v.21h-1V35.5a2.92,2.92,0,0,0-.27-.64,1.06,1.06,0,0,0-.44-.43,1.44,1.44,0,0,0-.57-.27,2,2,0,0,0-.64-.07,2.62,2.62,0,0,0-1.07.2,1.53,1.53,0,0,0-.71.64,2.58,2.58,0,0,0-.43.84,5.67,5.67,0,0,0-.14,1,4.31,4.31,0,0,0,.14,1,1.39,1.39,0,0,0,.43.84,3.32,3.32,0,0,0,.71.64,2.52,2.52,0,0,0,1.07.2,2.87,2.87,0,0,0,.77-.13,1.07,1.07,0,0,0,.58-.44,4.34,4.34,0,0,0,.43-.64,7.71,7.71,0,0,0,.2-.77v-.13h1v.2a4.66,4.66,0,0,1-.27,1.14,2.81,2.81,0,0,1-.64.94,2.43,2.43,0,0,1-.94.57C93.79,40.2,93.42,40.27,93,40.27Zm0-7a2.47,2.47,0,0,0-1.27.26,4.07,4.07,0,0,0-.94.71,2.87,2.87,0,0,0-.57,1.07A4.08,4.08,0,0,0,90,36.61a4,4,0,0,0,.21,1.27A2.25,2.25,0,0,0,90.77,39a2.18,2.18,0,0,0,.94.7,3.4,3.4,0,0,0,1.27.27,5.15,5.15,0,0,0,1-.13,2.35,2.35,0,0,0,.77-.51,3.42,3.42,0,0,0,.57-.77,4.55,4.55,0,0,0,.27-.84h-.27c-.07.27-.14.51-.2.71a2.07,2.07,0,0,1-.51.7,3.09,3.09,0,0,1-.7.5,2,2,0,0,1-.94.21,2.33,2.33,0,0,1-1.21-.27,2.49,2.49,0,0,1-.84-.71,3.9,3.9,0,0,1-.5-1,5.76,5.76,0,0,1-.13-1.14,6.43,6.43,0,0,1,.13-1.15,2.48,2.48,0,0,1,.5-1,2.24,2.24,0,0,1,.84-.71A2.47,2.47,0,0,1,93,33.55a3,3,0,0,1,.77.14,2.12,2.12,0,0,1,.64.37,2,2,0,0,1,.5.57,1.77,1.77,0,0,1,.27.64h.27a1.7,1.7,0,0,0-.27-.64,4.69,4.69,0,0,0-.57-.64,4.24,4.24,0,0,0-.77-.37A1.08,1.08,0,0,0,93,33.29Z"/><path class="cls-1" d="M105.8,33.29h.64v2.92h4V33.29h.64V40h-.64V36.71h-4V40h-.64Z"/><path class="cls-1" d="M111.3,40.13h-1V36.84h-3.62v3.29h-1V33.08h1V36h3.62V33.08h1Zm-.64-.33h.27V33.45h-.27v2.92H106.3V33.45H106V39.8h.27V36.51h4.36Z"/><path class="cls-1" d="M139,40h-.44l-.06-1.21h0c-.14.2-.27.44-.44.64s-.37.27-.57.43a1,1,0,0,1-.64.2,2.38,2.38,0,0,1-.7.07,2.72,2.72,0,0,1-1.34-.27,2.78,2.78,0,0,1-1-.77,3.49,3.49,0,0,1-.57-1.14,4.05,4.05,0,0,1-.2-1.27,3.66,3.66,0,0,1,.2-1.28,5.78,5.78,0,0,1,.57-1.14,2.3,2.3,0,0,1,1-.77,3,3,0,0,1,1.34-.27,5,5,0,0,1,1,.13,2,2,0,0,1,.84.44,7.41,7.41,0,0,1,.64.7,4.6,4.6,0,0,1,.37.94h-.64a.94.94,0,0,0-.2-.57,7.1,7.1,0,0,0-.43-.57,6.51,6.51,0,0,1-.64-.43,3.51,3.51,0,0,0-.84-.14,2.05,2.05,0,0,0-1.14.27,3.69,3.69,0,0,0-.77.64,2.15,2.15,0,0,0-.44.94,5.59,5.59,0,0,0-.13,1.07,5.69,5.69,0,0,0,.13,1.08,2.08,2.08,0,0,0,.44.94,2.13,2.13,0,0,0,.77.63,2.62,2.62,0,0,0,1.14.27,2.56,2.56,0,0,0,1-.2,1.4,1.4,0,0,0,.7-.5,1.84,1.84,0,0,0,.44-.78,4.59,4.59,0,0,0,.13-1H136.2v-.57h2.85L139,40Z"/><path class="cls-1" d="M136.1,40.27a2.86,2.86,0,0,1-1.41-.27,4.46,4.46,0,0,1-1.07-.77,3.72,3.72,0,0,1-.64-1.15,4.54,4.54,0,0,1-.2-1.34,4,4,0,0,1,.84-2.55,2,2,0,0,1,1.07-.77,3.44,3.44,0,0,1,1.41-.27,5.61,5.61,0,0,1,1.07.14,2.78,2.78,0,0,1,.94.43,1.86,1.86,0,0,1,.64.77,6.15,6.15,0,0,1,.37,1l.07.2h-1v-.13a1.39,1.39,0,0,0-.14-.51.89.89,0,0,0-.43-.5,2,2,0,0,0-.64-.37,2.87,2.87,0,0,0-.77-.13,2.59,2.59,0,0,0-1.07.2,1.58,1.58,0,0,0-.71.64,2.62,2.62,0,0,0-.44.84,6.54,6.54,0,0,0-.13,1,5.05,5.05,0,0,0,.13,1,1.4,1.4,0,0,0,.44.84,3.35,3.35,0,0,0,.71.64,2.46,2.46,0,0,0,1.07.2,3.79,3.79,0,0,0,.94-.14,1.41,1.41,0,0,0,.64-.5,1.59,1.59,0,0,0,.43-.71,2.52,2.52,0,0,0,.14-.77h-2.29v-.84h3.23v3.8h-.78l-.06-.84c-.07.06-.14.13-.14.2a1.13,1.13,0,0,1-.57.43,1.9,1.9,0,0,1-.7.27A6.19,6.19,0,0,0,136.1,40.27Zm0-7a2.5,2.5,0,0,0-1.28.26,4.55,4.55,0,0,0-.94.71,3.83,3.83,0,0,0-.57,1.07,4.38,4.38,0,0,0-.2,1.28,4.31,4.31,0,0,0,.2,1.27,2.44,2.44,0,0,0,.57,1.08,2.18,2.18,0,0,0,.94.7,3.46,3.46,0,0,0,1.28.27,2,2,0,0,0,.64-.07,4.14,4.14,0,0,0,.57-.2,1.08,1.08,0,0,0,.5-.37,3.72,3.72,0,0,0,.37-.57l.07-.06h.26v.13l.07,1.07h.14v-3H136.3V37h2.28v.14a6.65,6.65,0,0,1-.13,1.07,1.88,1.88,0,0,1-.51.84,4.26,4.26,0,0,1-.77.57,2.52,2.52,0,0,1-1.07.2,2.31,2.31,0,0,1-1.21-.27,2.59,2.59,0,0,1-.84-.7,4,4,0,0,1-.5-1,5.64,5.64,0,0,1-.14-1.14,6.34,6.34,0,0,1,.14-1.14,2.46,2.46,0,0,1,.5-1,2.06,2.06,0,0,1,.84-.7,2.47,2.47,0,0,1,1.21-.27,4.35,4.35,0,0,1,.94.13,3.64,3.64,0,0,1,.7.44,3,3,0,0,1,.51.57c.06.13.13.37.2.5h.27a2.32,2.32,0,0,0-.27-.7,1.8,1.8,0,0,0-.57-.64c-.2-.13-.51-.27-.78-.44A3.83,3.83,0,0,0,136.1,33.29Z"/><path class="cls-1" d="M149.29,33.29h3.05a3,3,0,0,1,.77.06,2.92,2.92,0,0,1,.64.27,1.18,1.18,0,0,1,.43.57,1.4,1.4,0,0,1,.14.77A2,2,0,0,1,154,36.1a1.59,1.59,0,0,1-1,.58h0a1.37,1.37,0,0,1,.57.13.94.94,0,0,1,.37.37,3.45,3.45,0,0,1,.2.43,1.54,1.54,0,0,1,.07.58v.43a1.15,1.15,0,0,0,.07.5c0,.14.06.37.06.51s.07.27.14.37h-.71a.27.27,0,0,1-.06-.2c0-.07-.07-.21-.07-.27v-.47a2.45,2.45,0,0,0-.07-.71,1.11,1.11,0,0,0-.2-.63.63.63,0,0,0-.43-.44,1.16,1.16,0,0,0-.71-.13h-2.42v2.91h-.63V33.35h.17Zm.63,3.15h2.35a1.6,1.6,0,0,0,.57-.07c.14-.06.37-.13.44-.27a.84.84,0,0,0,.27-.43,1.59,1.59,0,0,0,.13-.57,1.46,1.46,0,0,0-.37-1,1.51,1.51,0,0,0-1.07-.37h-2.35v2.72Z"/><path class="cls-1" d="M155,40.13h-1.21l-.07-.07c-.06-.06-.06-.13-.13-.26s-.07-.21-.07-.27v-.47a2.84,2.84,0,0,0-.06-.71,1.41,1.41,0,0,0-.14-.57,1,1,0,0,0-.37-.37,1.54,1.54,0,0,0-.57-.13h-2.28v3h-.94V33.22h3.29a4.07,4.07,0,0,1,.84.13,1.75,1.75,0,0,1,.7.37,2.06,2.06,0,0,1,.51.64,1.77,1.77,0,0,1,.2.84,2.26,2.26,0,0,1-.37,1.21,2.1,2.1,0,0,1-.57.5.07.07,0,0,1,.07.07,1.85,1.85,0,0,1,.43.37c.07.13.14.37.2.5a1.6,1.6,0,0,1,.07.57v.44a1.53,1.53,0,0,0,.07.5c0,.13.06.27.06.44a.32.32,0,0,0,.14.26Zm-1-.33h.27c0-.07,0-.07-.07-.14a1.43,1.43,0,0,1-.06-.5,1.21,1.21,0,0,0-.07-.5v-.44c0-.2-.07-.37-.07-.5s-.06-.27-.13-.44a.59.59,0,0,0-.27-.27,1,1,0,0,0-.5-.13H153a.21.21,0,0,1,.13.06.91.91,0,0,1,.44.51c.07.2.13.43.2.7s.07.51.07.71v.47a.47.47,0,0,0,.07.26A.48.48,0,0,1,154,39.8Zm-4.49,0h.26v-3h2.56a1.44,1.44,0,0,1,.57.07v-.31l.13-.06a1.42,1.42,0,0,0,.84-.51,1.65,1.65,0,0,0,.27-1,2.13,2.13,0,0,0-.14-.71,1,1,0,0,0-.37-.5,1.87,1.87,0,0,0-.57-.27,2.38,2.38,0,0,0-.7-.07h-2.92l.07,6.35Zm2.78-3.16h-2.55v-3h2.55a1.59,1.59,0,0,1,1.21.43,1.5,1.5,0,0,1,.44,1.08,2,2,0,0,1-.14.63,1.16,1.16,0,0,1-.37.51,1.71,1.71,0,0,1-.5.26C152.71,36.57,152.51,36.64,152.27,36.64Zm-2.11-.37h2.21a1.49,1.49,0,0,0,.51-.06,4.34,4.34,0,0,1,.43-.21c.14-.06.2-.2.27-.36a1.06,1.06,0,0,0,.07-.51,1.11,1.11,0,0,0-.27-.84,1.26,1.26,0,0,0-.94-.27h-2.22v2.29h-.06Z"/><path class="cls-1" d="M164.25,36.64a3.85,3.85,0,0,1,.2-1.27,6.07,6.07,0,0,1,.57-1.14,2.4,2.4,0,0,1,1-.78,3,3,0,0,1,1.34-.26,2.75,2.75,0,0,1,1.34.26,2.91,2.91,0,0,1,1,.78,3.39,3.39,0,0,1,.57,1.14,4.31,4.31,0,0,1,.2,1.27,3.91,3.91,0,0,1-.2,1.28,6.07,6.07,0,0,1-.57,1.14,2.3,2.3,0,0,1-1,.77,3,3,0,0,1-1.34.27,2.74,2.74,0,0,1-1.34-.27,2.89,2.89,0,0,1-1-.77,3.81,3.81,0,0,1-.57-1.14A4.23,4.23,0,0,1,164.25,36.64Zm.64,0a6.63,6.63,0,0,0,.13,1.08,2.08,2.08,0,0,0,.44.94,2.3,2.3,0,0,0,.77.63,2.62,2.62,0,0,0,1.14.27,2.21,2.21,0,0,0,1.14-.27,3.37,3.37,0,0,0,.77-.63,2.21,2.21,0,0,0,.44-.94,5.69,5.69,0,0,0,.13-1.08,5.59,5.59,0,0,0-.13-1.07,2,2,0,0,0-.44-.94,2.34,2.34,0,0,0-.77-.64,2.77,2.77,0,0,0-1.14-.27,2.05,2.05,0,0,0-1.14.27,3.69,3.69,0,0,0-.77.64,2.27,2.27,0,0,0-.44.94A6.51,6.51,0,0,0,164.89,36.64Z"/><path class="cls-1" d="M167.47,40.27a2.88,2.88,0,0,1-1.41-.27,4.66,4.66,0,0,1-1.07-.77,3.94,3.94,0,0,1-.64-1.15,4.89,4.89,0,0,1-.2-1.34,4,4,0,0,1,.84-2.55,2.06,2.06,0,0,1,1.07-.77,3.44,3.44,0,0,1,1.41-.27,2.86,2.86,0,0,1,1.41.27,4.2,4.2,0,0,1,1.07.77,3.42,3.42,0,0,1,.64,1.21,4.64,4.64,0,0,1,.2,1.34,4,4,0,0,1-.2,1.34,3.14,3.14,0,0,1-.64,1.15,2.09,2.09,0,0,1-1.07.77A3.14,3.14,0,0,1,167.47,40.27Zm0-7a2.47,2.47,0,0,0-1.27.26,3.51,3.51,0,0,0-.94.71,2.87,2.87,0,0,0-.57,1.07,4.07,4.07,0,0,0-.2,1.28,4,4,0,0,0,.2,1.27,2.34,2.34,0,0,0,.57,1.08,2.18,2.18,0,0,0,.94.7,3.45,3.45,0,0,0,1.27.27,2.5,2.5,0,0,0,1.28-.27,4.19,4.19,0,0,0,.94-.7,3.76,3.76,0,0,0,.57-1.08,4.31,4.31,0,0,0,.2-1.27,4.38,4.38,0,0,0-.2-1.28,2.46,2.46,0,0,0-.57-1.07,2.28,2.28,0,0,0-.94-.71A3.68,3.68,0,0,0,167.47,33.29Zm0,6.51a2.33,2.33,0,0,1-1.21-.27,2.59,2.59,0,0,1-.84-.71,4.25,4.25,0,0,1-.5-1,5.76,5.76,0,0,1-.13-1.14,6.43,6.43,0,0,1,.13-1.15,2.48,2.48,0,0,1,.5-1,2.31,2.31,0,0,1,.84-.71,2.5,2.5,0,0,1,1.21-.27,2.31,2.31,0,0,1,1.21.27,2.49,2.49,0,0,1,.84.71,4.07,4.07,0,0,1,.5,1,5.75,5.75,0,0,1,.14,1.15,6.45,6.45,0,0,1-.14,1.14,2.42,2.42,0,0,1-.5,1,2.16,2.16,0,0,1-.84.71A4.94,4.94,0,0,1,167.47,39.8Zm0-5.94a2.46,2.46,0,0,0-1.07.2,1.63,1.63,0,0,0-.71.64,2.36,2.36,0,0,0-.43.83,5.79,5.79,0,0,0-.14,1,4.4,4.4,0,0,0,.14,1,1.34,1.34,0,0,0,.43.84,3.06,3.06,0,0,0,.71.63,2.37,2.37,0,0,0,1.07.21,2.51,2.51,0,0,0,1.08-.21,1.4,1.4,0,0,0,.7-.63,2.62,2.62,0,0,0,.44-.84,6.82,6.82,0,0,0,.13-1,5.15,5.15,0,0,0-.13-1,1.35,1.35,0,0,0-.44-.83,3.27,3.27,0,0,0-.7-.64A3.06,3.06,0,0,0,167.47,33.86Z"/><path class="cls-1" d="M180.66,33.29h.64v4.12a4.42,4.42,0,0,0,.13,1,1.23,1.23,0,0,0,.37.64,1.89,1.89,0,0,0,.64.37,3,3,0,0,0,.84.13,4.18,4.18,0,0,0,.84-.13,2.07,2.07,0,0,0,.63-.37,2.83,2.83,0,0,0,.37-.64,3.71,3.71,0,0,0,.14-1V33.29h.63v4.29a5,5,0,0,1-.13,1,2.18,2.18,0,0,1-.44.77,3.14,3.14,0,0,1-.77.57,3.33,3.33,0,0,1-1.21.2,3.55,3.55,0,0,1-1.2-.2,2,2,0,0,1-.78-.57,1.69,1.69,0,0,1-.43-.77,4.17,4.17,0,0,1-.14-1V33.32h-.13Z"/><path class="cls-1" d="M183.21,40.27a3.43,3.43,0,0,1-1.28-.21,2.1,2.1,0,0,1-.83-.57,2.13,2.13,0,0,1-.51-.83,5,5,0,0,1-.13-1v-4.5h1v4.36a3.33,3.33,0,0,0,.14.94A1.1,1.1,0,0,0,182,39a2.16,2.16,0,0,0,.57.37,3,3,0,0,0,1.57,0,1.23,1.23,0,0,0,.58-.37,2.23,2.23,0,0,0,.36-.57,3.52,3.52,0,0,0,.14-.94V33.15h1v4.5a4.48,4.48,0,0,1-.14,1,1.46,1.46,0,0,1-.5.83,1.85,1.85,0,0,1-.84.57A6,6,0,0,1,183.21,40.27Zm-2.42-6.85v4.16a3.79,3.79,0,0,0,.14.94,1.33,1.33,0,0,0,.43.71,2.32,2.32,0,0,0,1.85.7,3,3,0,0,0,1.14-.2,1.62,1.62,0,0,0,.7-.5,1.57,1.57,0,0,0,.44-.71,3.61,3.61,0,0,0,.13-.94V33.45h-.26v4a4.48,4.48,0,0,1-.14,1.07,1,1,0,0,1-.43.71,3.45,3.45,0,0,1-.71.43,3.82,3.82,0,0,1-1.78,0,1.33,1.33,0,0,1-.7-.43,1.66,1.66,0,0,1-.44-.71,4.87,4.87,0,0,1-.13-1.07v-4h-.24Z"/><path class="cls-1" d="M196.19,33.29h3a2.53,2.53,0,0,1,.77.13,2.12,2.12,0,0,1,.64.37c.13.13.27.37.44.57a2.35,2.35,0,0,1,0,1.54,1,1,0,0,1-.44.57,1.74,1.74,0,0,1-.64.37,2.52,2.52,0,0,1-.77.14h-2.35v2.85h-.64Zm.64,3.28h2.22a1.68,1.68,0,0,0,1.07-.36,1.38,1.38,0,0,0,0-2,1.69,1.69,0,0,0-1.07-.37h-2.22Z"/><path class="cls-1" d="M197,40.13h-1V33.08h3.12a3,3,0,0,1,.84.14,1.33,1.33,0,0,1,.7.44,1.86,1.86,0,0,1,.44.63,4.07,4.07,0,0,1,.13.84,2.78,2.78,0,0,1-.13.84,1.31,1.31,0,0,1-.44.64,1.52,1.52,0,0,1-.7.43,3.51,3.51,0,0,1-.84.14H197v3Zm-.63-.33h.26V36.94h2.49a3,3,0,0,0,.77-.13,1.28,1.28,0,0,0,.57-.37,2.44,2.44,0,0,0,.37-.57,2.47,2.47,0,0,0,.13-.7,2.14,2.14,0,0,0-.13-.71,1.28,1.28,0,0,0-.37-.57,2.44,2.44,0,0,0-.57-.37,2.53,2.53,0,0,0-.77-.13h-2.79V39.8Zm2.65-3.09H196.7V33.66h2.35a2.05,2.05,0,0,1,1.2.36,1.59,1.59,0,0,1,.51,1.15,1.22,1.22,0,0,1-.51,1.14A1.52,1.52,0,0,1,199.05,36.71Zm-2-.34h2a1.56,1.56,0,0,0,1-.27,1.27,1.27,0,0,0,.37-.93,1.22,1.22,0,0,0-.37-.94,1.32,1.32,0,0,0-1-.27h-2Z"/><path class="cls-1" d="M91.13,16.48a8.08,8.08,0,0,1,2.09-3,4.31,4.31,0,0,1,3-1.21,8.49,8.49,0,0,1,4.36,1.58,8.11,8.11,0,0,0,3.86,1.58,3.16,3.16,0,0,0,2.15-.71,7.05,7.05,0,0,0,1.71-2.15l1.21.77a9.87,9.87,0,0,1-2.08,2.72A4.6,4.6,0,0,1,104,17.41a8.36,8.36,0,0,1-4.43-1.57,7.79,7.79,0,0,0-3.86-1.58,2.73,2.73,0,0,0-1.91.71,6,6,0,0,0-1.51,2.08Z"/></g></g></svg>